<?xml version="1.0" encoding="UTF-8"?>
<svg width="125mm" height="109mm" version="1.1" viewBox="0 0 125 109" xmlns="http://www.w3.org/2000/svg" xmlns:cc="http://creativecommons.org/ns#" xmlns:dc="http://purl.org/dc/elements/1.1/" xmlns:rdf="http://www.w3.org/1999/02/22-rdf-syntax-ns#">
 <metadata>
  <rdf:RDF>
   <cc:Work rdf:about="">
    <dc:format>image/svg+xml</dc:format>
    <dc:type rdf:resource="http://purl.org/dc/dcmitype/StillImage"/>
    <dc:title/>
   </cc:Work>
  </rdf:RDF>
 </metadata>
 <g transform="translate(-.051879 .20739)">
  <path transform="scale(.26458)" d="m134.24 0.11914c-0.3273-0.006788-0.69662-0.003611-1.1113 0.007813-2.1022 0.057895-3.071 0.40744-2.1543 0.77734 2.1581 0.87084 2.1839 3.5118 0.0274 2.793-0.90084-0.30028-2.8126 0.5495-4.25 1.8887-1.4374 1.3392-3.4657 2.4355-4.5059 2.4355-1.1332 0-1.583 0.80152-1.123 2 0.96155 2.5058-0.38956 2.4899-3.7383-0.042969-3.0069-2.2743-4.7441-2.5065-4.7441-0.63672 0 2.3652-10.562 16.608-12.932 17.439-1.2693 0.44526 0.56782 0.85315 4.082 0.90625 3.5142 0.05313 6.7027 0.40969 7.0859 0.79297 1.3289 1.3289-0.95205 3.34-4.7305 4.1699-2.0885 0.45872-5.5326 2.6507-7.6523 4.8711l-3.8535 4.0371 3.666-0.91211c4.5836-1.1414 4.8022 0.9841 0.3457 3.3691-2.5248 1.3513-4.1726 4.4458-6.8633 12.893-1.9472 6.1127-4.0521 11.113-4.6777 11.113-0.62568 0-1.1367 1.6036-1.1367 3.5625 0 1.9589-1.0407 4.7099-2.3125 6.1152-2.7168 3.002-2.8248 10.292-0.41797 28.322 0.88102 6.6 1.5942 14.226 1.584 16.947-0.01013 2.721 1.3498 9.921 3.0234 16 1.6736 6.079 3.2854 11.939 3.582 13.021 0.33832 1.2347-0.57722 2.1387-2.459 2.4258-4.6259 0.70578-3.5627 2.684 2.2891 4.2598 2.9091 0.78333 5.7578 2.2187 6.332 3.1894 0.57428 0.97074 1.8939 2.036 2.9316 2.3672 1.0377 0.33121 1.9587 2.2498 2.0469 4.2637 0.12213 2.7899-0.88311 4.3064-4.2207 6.3691-5.8678 3.6265-6.1874 6.9303-0.36914 3.8164 2.6215-1.403 9.3223 0.67192 9.3223 2.8867 0 0.61561 0.60065 1.1191 1.334 1.1191 0.73333 0 1.3715-1.6494 1.418-3.666l0.084-3.666 1.3887 3.332c0.76327 1.8333 1.3981 6.6346 1.4102 10.668 0.0126 4.0333 0.60201 8.0576 1.3106 8.9434 0.8891 1.1116 0.26401 2.6364-2.0195 4.9199-3.7048 3.7048-3.3201 5.121 1.0918 4.0137 1.9628-0.49264 3.2246-0.0371 3.7598 1.3574 0.44304 1.1546 0.18261 2.0977-0.58008 2.0977-0.76271 0-2.2766 0.88991-3.3633 1.9766-1.3884 1.3884-3.7985 1.7913-8.1055 1.3555-6.472-0.65488-7.7094-1.2573-7.7578-3.7754-0.01646-0.85555-1.0714-1.3788-2.3438-1.1621-1.3878 0.23641-2.8237-0.82977-3.5898-2.666-1.4021-3.3602-5.9858-9.0606-7.2852-9.0606-1.3998 0 2.9192 7.0848 7.5254 12.346 3.587 4.097 5.8042 5.2929 12.127 6.5332 7.236 1.4195 8.0071 1.3181 11.877-1.543 3.9609-2.9284 4.2141-2.955 5.9121-0.63282 0.97571 1.3344 2.1348 4.5727 2.5762 7.1953 1.1279 6.7018 4.4675 15.791 8.2305 22.395 1.7634 3.0947 2.8288 6.2375 2.3672 6.9844-0.46159 0.7469-0.0583 1.0599 0.89649 0.69531 1.2463-0.47591 1.61-3.1044 1.2891-9.3184-0.28977-5.6095 0.0621-8.6543 1-8.6543 0.7959 0 1.4582 1.35 1.4688 3 0.0144 2.1177 0.34623 2.4834 1.1309 1.2461 1.7059-2.6901 0.24282-8.1852-1.9551-7.3418-1.4582 0.55953-1.8633-0.90923-1.8633-6.7617 0-5.7564-0.46003-7.4766-2-7.4766-1.1 0-2.0664-1.0506-2.1484-2.334-0.78777-12.333-1.6978-15-5.1172-15-1.8192 0-2.9737-1.1799-3.5859-3.666-1.0091-4.0977-3.9687-9.0976-7.4824-12.645-1.2833-1.2954-2.3712-3.1048-2.418-4.0215-0.0468-0.91667-0.28261-3.6821-0.52344-6.1445-0.30657-3.1349 0.36924-5.2833 2.2539-7.168 2.4022-2.4022 2.5956-3.7508 1.7988-12.543-0.74359-8.2058-0.54776-9.983 1.166-10.641 1.1316-0.43423 2.0566-1.3824 2.0566-2.1074s1.2212-3.0352 2.7148-5.1328c1.4328-2.0122 2.7212-5.3402 2.9629-7.5781-0.0141-0.0484-0.0343-0.0747-0.0469-0.12891-0.0257-0.11138 0.0293-0.23087 2e-3 -0.3418 7e-3 -0.30784 0.0164-0.616-0.0312-0.92187 6e-3 -0.16166 0.0335-0.64438 0.1582-0.79102 5e-3 -0.0799 0.0129-0.17954 0-0.12109-3.1e-4 -0.37816-3e-3 -0.75661 0-1.1348 6.4e-4 -0.35036-0.0127-0.70048-2e-3 -1.0508 6e-3 -0.09 1e-3 -0.18162 0.0215-0.26953 6e-3 -0.0249 0.53684 0.93126-0.0957-0.20117 0.0622 0.0619-0.0127-7e-3 -0.0195-0.0859-1e-3 -0.0113 0.0222-6e-3 0.0332-0.01-0.0839-0.0857-0.16801-0.1721-0.25195-0.25782-0.0894-0.11112-0.16854-0.23026-0.24023-0.35351-0.048-0.0826-0.0779-0.17468-0.11719-0.26172-0.0959-0.20372-0.16712-0.36245-0.2793-0.5586-0.0684-0.1195-0.14915-0.23253-0.21484-0.35351-0.0419-0.0772-0.0659-0.16287-0.10742-0.24024-0.13172-0.24529-0.30863-0.46434-0.41797-0.72265-0.0721-0.16864-0.1564-0.33272-0.2168-0.50586-0.29238-0.83847 0.0177-0.0417-0.0898-0.44727-0.0223-0.0847-0.0615-0.16293-0.082-0.24804-0.0684-0.28354 0.23076 0.33175-0.0996-0.26368-0.14196-0.25375-0.17438-0.29077-0.28516-0.6289-9e-3 -0.028 0.0103-0.0592 4e-3 -0.0879-0.0751-0.32859-0.26561-0.62641-0.29297-0.96875-0.0155-0.16657-0.0604-0.32912-0.0703-0.4961-9.6e-4 -0.0162 0.0369-0.022 0.0312-0.0371-0.0318-0.0847-0.0959-0.15453-0.13477-0.23632-0.21536-0.45279-0.17565-0.33642-0.23828-0.71289-0.32466-1.2568 0.0632 0.3066-0.12695-0.63477-0.0227-0.11165-0.0655-0.21843-0.0879-0.33008-0.0109-0.0552-1e-3 -0.11271-0.0117-0.16797-0.0163-0.0843-0.0527-0.16365-0.0684-0.24804-5e-3 -0.0284 4e-3 -0.0571 6e-3 -0.0859-0.0767-0.15753-0.26928-0.55202-0.29883-0.63086-0.0193-0.0518-0.0105-0.10956-0.0195-0.16406-0.0144-0.0855-0.0439-0.16942-0.0508-0.25586-1e-3 -0.0181 0.0315-0.029 0.0273-0.0469-0.0106-0.0441-0.044-0.0798-0.0664-0.11914-0.0806-0.0973-0.17336-0.18507-0.24218-0.29101-0.34466-0.53058-0.52173-1.2955-0.52344-1.9219-2e-3 -0.0498 0.0101-0.1025-4e-3 -0.15039-0.0431-0.14982-0.10046-0.15108-0.15039-0.28125-0.11221-0.29246-0.15752-0.41814-0.14062-0.69531-1e-3 -0.33336-8e-3 -0.66675 4e-3 -1 0.0105-0.30453-0.034-0.6048-0.0137-0.90625-7.1918-0.0667-7.4922-0.48799-7.4922-3.082 0-1.7027 0.95607-5.9014 2.125-9.332 1.7962-5.2714 2.6732-6.2548 5.666-6.3438 1.9477-0.0579 2.7917-0.40748 1.875-0.77734-0.91667-0.36988-1.666-1.2594-1.666-1.9766 0-0.79568 2.4673-0.94568 6.332-0.38476 7.3512 1.0669 8.3068 1.6132 5.668 3.2441-3.2777 2.0257-0.86524 2.5769 5.2578 1.2012 3.2197-0.7234 6.8044-0.8933 7.9648-0.37891 1.1604 0.51439 2.5594 0.83907 3.1094 0.72266 0.55001-0.11642 1 0.38776 1 1.1211 0 2.1288 9.3722 1.4632 17.133-1.2168 4.6945-1.6212 9.0547-4.4539 12.756-8.2891 5.8263-6.0372 14.333-11.826 17.379-11.826 0.96212 0 3.439-2.25 5.5039-5 3.7449-4.9873 4.8181-6.0258 8.5215-8.2539 1.6236-0.97681 1.3948-1.6556-1.334-3.959-1.8106-1.5284-4.3426-2.5359-5.627-2.2402-1.2844 0.29571-2.0373 0.05685-1.6738-0.53125 0.36347-0.5881-0.21111-1.4041-1.2754-1.8125-1.5653-0.60066-1.6904-0.10164-0.65821 2.6133 2.0378 5.3597 1.5815 5.3559-3.9375-0.0332-2.8671-2.7997-5.7453-4.7599-6.3965-4.3574-0.65122 0.40247-2.0561 0.17958-3.1211-0.49414-1.6754-1.0599-1.6763-1.2264-0.0137-1.2441 1.3778-0.01464 1.1878-0.57487-0.66797-1.9785-2.498-1.8894-2.4711-1.959 0.7461-1.959 1.8333 0 4.4984 0.88231 5.9219 1.959 4.1301 3.1238 5.1851 2.2702 2.0781-1.6797-3.8999-4.9579-14.068-12.021-18.803-13.061-4.3519-0.95585-3.9658-3.2905 0.54883-3.3223 2.375-0.0166 2.5459-0.26367 0.91992-1.3145-1.1-0.71088-3.4223-1.3012-5.1621-1.3125-2.6599-0.01717-2.8996-0.3378-1.5039-2.0195 1.8662-2.2486 1.0924-2.423-9-2.0234-3.5253 0.13957-5.666-0.35836-5.666-1.3164 0-0.9778 1.3379-1.2586 3.666-0.76953 2.0167 0.42363 4.5201 0.2224 5.5625-0.44727 2.0188-1.297-1.5023-3.1833-12.562-6.7344-2.9336-0.94162-6.3346-2.5845-7.557-3.6502-1.7131-1.4936-2.8509-1.6022-4.9688-0.46875-2.2706 1.2152-2.6128 1.1197-1.9688-0.55859 1.0591-2.7601-0.80856-2.5708-2.959 0.30078-1.5894 2.1224-1.6797 2.0628-0.99218-0.66602 0.57406-2.2785 0.33599-2.8548-1.9551-2.9023zm26.135 5.5273c-1.6968 0.085732-0.0727 2.3147 3.4024 3.7168 3.9286 1.5851 4.3401 1.5618 5.9199-0.3418 1.0303-1.2414 0.64616-1.7121-1.5039-1.8457-1.5876-0.098649-4.331-0.64407-6.0957-1.2109-0.76321-0.24517-1.3311-0.33814-1.7227-0.31836zm25.217 9.1914c-0.94429-0.08288-0.22486 1.0093 1.9297 3.6016 1.7152 2.0636 4.3185 5.45 5.7852 7.5254 1.4667 2.0754 5.2173 6.7075 8.334 10.293 3.1167 3.5855 5.666 7.063 5.666 7.7266s1.754 3.1249 3.8965 5.4707c4.4234 4.843 8.31 4.6544 7.2344-0.35156-0.58704-2.7321-0.45924-2.8374 1.123-0.92383 0.98157 1.1871 3.8755 2.5999 6.4316 3.1387 4.642 0.97834 13.314 7.9331 13.314 10.678 0 1.3543 1.6152 3.5095 11 14.68 2.0167 2.4003 3.668 4.7931 3.668 5.3164 0 0.52331 1.0902 2.5437 2.4238 4.4902 3.2429 4.7334 5.5714 13.209 5.5938 20.361 0.01 3.2149 0.38008 7.1938 0.82227 8.8438 1.6573 6.1842 2.1905 2.5967 1.4883-10-0.54275-9.7356-1.64-15.342-4.3691-22.332-2.0044-5.1333-4.263-11.044-5.0195-13.135-0.75654-2.0905-2.6846-5.7312-4.2852-8.0898-3.9738-5.8557-5.0497-10.846-3.0352-14.072 2.7967-4.4782-1.3133-7.1866-11.262-7.4238-10.61-0.25302-15.68-1.6607-18.611-5.166-1.7436-2.0853-2.3421-2.281-2.3906-0.78125-0.0576 1.7778-0.20658 1.7778-1.3555 0-0.71088-1.1-1.3031-1.4163-1.3144-0.70312-0.0112 0.71317-0.95413-0.03618-2.0957-1.666-1.1416-1.6298-2.6836-2.9629-3.4277-2.9629-2.0738 0-5.1564-3.5496-4.0996-4.7207 0.51508-0.57082-0.0937-0.66828-1.3535-0.2168-1.2599 0.45148-2.6466 0.24623-3.0801-0.45508-0.43344-0.7013 0.29839-1.2922 1.625-1.3145 2.3032-0.03872 2.3005-0.10557-0.041-1.4668-1.3487-0.78414-3.9336-1.143-5.7441-0.79688-2.2631 0.43262-3.0913 0.11071-2.6523-1.0332 0.35119-0.91518-0.84254-2.3395-2.6523-3.1641-1.8154-0.82714-2.9803-1.2999-3.5469-1.3496zm-76.795 7.8496c1.4667 0 2.297 0.60066 1.8438 1.334-0.45323 0.73334-2.0236 1.334-3.4902 1.334s-2.297-0.60065-1.8438-1.334c0.45323-0.73333 2.0236-1.334 3.4902-1.334zm-25.385 56.16c0.21634-0.07164 1.0657 1.1377 2.0527 2.959 1.128 2.0815 1.801 4.033 1.4961 4.3379-0.58919 0.5892-3.6899-5.6006-3.5996-7.1855 0.0037-0.06444 0.01987-0.10109 0.05078-0.11133zm-0.02539 6.5078c0.77661 0 1.0411 0.5987 0.58789 1.332-0.45323 0.73333-1.0887 1.334-1.4121 1.334-0.32337 0-0.58789-0.60065-0.58789-1.334 0-0.73333 0.6355-1.332 1.4121-1.332zm51.662 26.205c-0.0237 0.0646-0.0495 0.12909-0.0742 0.19336 4e-4 0.0377 2e-3 0.0755 2e-3 0.11328 0.0105-0.0414 0.0177-0.0835 0.0273-0.125 0.0141-0.0607 0.0304-0.12104 0.0449-0.18164zm133.36 5.873c-1.3507 0.14837-2.4336 2.8064-2.4336 6.666 0 2.9597 0.64534 5.2559 1.4785 5.2559 0.90397 0 1.269-1.807 0.9375-4.6465-0.2983-2.5551 0.0855-4.8726 0.85351-5.1504 0.76805-0.27784 0.98559-0.94779 0.48438-1.4883-0.35397-0.38171-0.70651-0.58552-1.0469-0.63281-0.0922-0.0128-0.18339-0.0138-0.27343-4e-3zm4.0215 2.5879c-2.1943 0-1.5877 9.1481 1.0176 15.334 2.6715 6.3431 4.1755 14.009 5.3574 27.332 0.29277 3.3 0.81587 6.7724 1.1621 7.7168 0.34623 0.94443-0.26197 2.0592-1.3496 2.4766-1.4898 0.57171-1.9174 2.7785-1.7363 8.9492 0.22827 7.7798 0.26611 7.8666 0.7461 1.7129 0.38105-4.8855 1.1014-6.6361 2.9336-7.1152 5.7607-1.5065 6.7948-24.48 1.8242-40.561-2.1344-6.905-2.2523-7.0272-3.0644-3.1797-0.78918 3.7387-1.0102 3.4569-3.3906-4.332-1.4007-4.5833-2.9756-8.334-3.5-8.334zm-145.37 0.21875c-2e-3 -0.0223-5e-3 0.0471 2e-3 0.0684 2e-3 6e-3 1e-3 -0.0109 2e-3 -0.0195-2e-3 -0.0163-2e-3 -0.0326-4e-3 -0.0488zm117.26 7.5293c-3.466 0.077-8.6505 1.3469-11.5 3.4492-2.8692 2.1168-3.7447 3.4328-2.5918 3.8945 2.6734 1.0707 2.8571 1.0474 9.4219-1.1894 3.3852-1.1535 6.8658-2.9535 7.7344-4 1.2886-1.5526-0.36868-2.2142-3.0645-2.1543zm-76.514 8.1133c-8.4805 0.0133-16.504 1.6504-16.504 3.7363 0 1.0004-0.89999 2.1638-2 2.5859-1.1 0.42212-2 1.6034-2 2.625 0 2.4047 2.4968 2.3498 8.5742-0.18946 3.1255-1.306 6.5682-1.7347 9.5059-1.1836 6.5694 1.2324 16.184-0.46048 17.168-3.0234 1.1647-3.0352 0.43506-3.3864-8.8926-4.2852-1.9128-0.18431-3.8945-0.2687-5.8516-0.26563zm101.48 4.2676c-0.61157 0.0666-0.71195 0.72174-0.3379 2.0254 0.39641 1.3815 1.4699 5.513 2.3848 9.1797 0.91488 3.6667 1.8773 7.4548 2.1387 8.418 0.72437 2.6689 3.1611 0.48296 3.1543-2.8301-8e-3 -4.5484-4.5065-15.981-6.5566-16.664-0.3187-0.10624-0.57935-0.15111-0.7832-0.12891zm-27.357 1.2051c-5.2636 0-8.0646 0.94972-14.018 4.7578-6.9699 4.4586-8.9778 8.121-4.2422 7.7402 1.1543-0.0928 1.8018 0.57345 1.4492 1.4922-0.35077 0.9141 0.6926 2.0069 2.3242 2.4336 2.4294 0.63529 2.6697 1.1258 1.3379 2.7305-1.3161 1.5857-1.1677 2.0728 0.78125 2.5781 6.2819 1.6289 8.4043 1.0054 8.4043-2.4688 0-2.5358 1.1014-3.9122 4.332-5.4121 2.3833-1.1065 5.8346-2.8669 7.668-3.9121 1.8333-1.0452 4.3882-1.9093 5.6777-1.9199 1.9812-0.0166 2.0954-0.41862 0.73828-2.5918-2.3078-3.6954-6.9213-5.4277-14.453-5.4277zm4.0371 5.332c0.73334 0 1.332 0.60065 1.332 1.334 0 0.73334-0.59869 1.334-1.332 1.334-0.73333 0-1.334-0.60065-1.334-1.334 0-0.73333 0.60065-1.334 1.334-1.334zm-68.939 3.3887c-1.5359-3e-3 -2.7856 0.21251-3.0606 0.57227-0.36666 0.47968-4.268 2.2774-8.668 3.9961-11.724 4.5796-16.581 8.5252-16.064 13.043 0.30847 2.6963 1.0782 3.5792 2.9082 3.332 1.3693-0.18492 8.0464-0.48621 14.838-0.66797 9.4347-0.25249 12.198 0.0625 11.709 1.3359-0.93063 2.4251 6.5608 2.1364 8.6094-0.33203 0.91292-1.1 3.1608-2 4.9942-2 2.6594 0 3.0289-0.36761 1.8281-1.8144-0.82792-0.9976-3.1517-1.5936-5.1641-1.3262-2.012 0.26745-2.9069 0.13234-1.9902-0.29882 0.91667-0.43115 1.666-1.9343 1.666-3.3398 0-1.9506 0.94685-2.5547 4-2.5547 2.6667 0 4-0.66666 4-2 0-1.1 0.9-2 2-2 2.316 0 2.6646-2.0985 0.56445-3.3965-0.78929-0.48781-4.8393-1.1585-9-1.4902-4.1607-0.33178-9.3644-0.77267-11.564-0.98047-0.55-0.052-1.0935-0.0772-1.6055-0.0781zm-81.1 2.0391c0.30607 0.042 0.70721 0.65747 1.1699 1.8633 0.4131 1.0765 0.17787 2.3127-0.52344 2.7461-0.7013 0.43344-1.2754-0.44708-1.2754-1.957 0-1.8109 0.23539-2.7063 0.62891-2.6524zm-14.168 6.9902c-1.8647 0.15376-2.4236 2.3005-2.2715 7.3281l0.18945 6.2539 0.81055-5.2051c0.54098-3.4737 1.6666-5.5051 3.3809-6.1016 2.3886-0.83115 2.4035-0.95626 0.21289-1.7969-0.93408-0.35843-1.7007-0.52976-2.3223-0.47851zm95.42 1.2852c0.2448-0.0115 0.58607 0.23061 1.0527 0.69727 1.2444 1.2444 1.2444 1.9567 0 3.2012-1.2444 1.2444-1.5996 0.88733-1.5996-1.6016 0-1.5556 0.13889-2.2778 0.54687-2.2969zm-96.078 13.322c-0.2012 0.0663-0.22354 0.71002-0.12695 1.9922 0.12359 1.6407 0.69812 2.9824 1.2754 2.9824 1.3913 0 1.2953-1.5446-0.24609-3.9824-0.36954-0.58449-0.63092-0.91929-0.80469-0.98633-0.0362-0.014-0.06891-0.0153-0.09766-6e-3zm13.471 18.498c-0.55768-0.0176-0.63522 0.39036-0.34375 1.2656 0.34417 1.0335 1.6796 2.0821 2.9688 2.332 1.2892 0.24994 3.4905 1.5999 4.8906 3 2.6989 2.6989 10.545 3.5302 10.545 1.1172 0-2.7034-3.4909-4.909-8.7402-5.5234-2.893-0.33865-6.392-1.1087-7.7754-1.7109-0.7029-0.306-1.2103-0.46991-1.5449-0.48047zm155.39 3.8105 2.666 2.666c1.4667 1.4667 3.2523 2.668 3.9688 2.668s2.2851 1.4987 3.4863 3.332c2.8132 4.2935 3.7255 4.2324 2.6191-0.17578-1.0905-4.3448-5.7516-8.3864-9.7402-8.4453zm-14.568 5.5234c-0.38553-0.0113-0.85274 0.11881-1.3652 0.43555-0.79409 0.49077-1.0669 1.5034-0.60547 2.25 0.56283 0.91073 1.308 0.88725 2.2656-0.0703 1.2835-1.2835 0.86168-2.5814-0.29493-2.6152zm-0.88476 5.2754c-2.3735-0.0283-4.496 0.31924-5.2812 1.0566-0.74284 0.69756-5.1061 0.65874-10.551-0.0937-6.7629-0.93472-10.88-0.83662-15.158 0.36133l-5.873 1.6445 4.4902 2.3945c2.4701 1.3163 3.7428 2.4186 2.8262 2.4492-0.91666 0.0307-1.668 0.94773-1.668 2.0391 0 1.2857-1.8882 2.2861-5.3633 2.8418-2.9496 0.47167-5.6844 1.3786-6.0781 2.0156-0.3937 0.63701-1.7676 1.1582-3.0527 1.1582-1.2851 0-3.6249 1.2013-5.1992 2.668-1.5743 1.4667-3.486 2.666-4.25 2.666-1.5241 0-1.5155-0.0323-2.0664 6.666-0.2111 2.5667 0.25464 5.0645 1.0332 5.5488 1.8502 1.151 9.9152-0.0876 14.977-2.2988 2.2-0.96113 9.4-2.745 16-3.9648 15.719-2.9053 23.757-5.2234 24.357-7.0234 0.34036-1.0211-0.79705-1.0911-3.791-0.23242-2.3531 0.67486-4.8462 0.8774-5.5391 0.44922-2.3263-1.4378 1.6002-3.7378 6.6719-3.9082 2.7327-0.0918 6.1681-0.65659 7.6348-1.2559 2.1438-0.87593 2.0138-0.5093-0.66602 1.8691-2.915 2.5871-2.9999 2.8807-0.66797 2.3379 8.0944-1.8841 12.668-2.2028 12.668-0.88086 0 0.91249 1.323 0.76109 3.666-0.42187 2.0167-1.0182 4.4158-1.5849 5.332-1.2578 2.2047 0.7869 3.6695-3.211 1.9453-5.3106-0.7451-0.90733-1.5628-3.1491-1.8164-4.9824s-1.0616-3.2342-1.7949-3.1133c-0.73333 0.12097-2.0968-0.41593-3.0312-1.1914-0.93438-0.77544-2.0167-1.0926-2.4043-0.70508-0.38757 0.38758 0.75558 1.8534 2.541 3.2578 2.7318 2.1488 2.9837 2.9141 1.5898 4.8203-2.0075 2.7454-5.2712 3.0226-4.25 0.36133 0.40153-1.0464-0.1335-2.6197-1.1895-3.4961-1.6158-1.341-1.8012-0.98633-1.1719 2.2363 0.58705 3.006 0.10624 4.2216-2.2363 5.6543-2.6279 1.6072-3.2003 1.5304-4.7949-0.65039-1.2016-1.6433-1.3293-2.6376-0.37695-2.9551 0.96234-0.32079 0.87251-1.1579-0.2754-2.541-1.489-1.7942-1.279-1.9413 1.6113-1.1328l3.3223 0.92773-3.1484-2.7363c-1.9824-1.7238-2.4747-2.771-1.332-2.8301 0.9979-0.0515 0.61315-0.60998-0.85352-1.2402-1.7874-0.76808-4.4117-1.1729-6.7852-1.2012zm-21.992 2.6992c0.4632 0.0191 0.86245 0.14175 1.084 0.36328 0.44304 0.44306-0.34447 0.75709-1.75 0.69922-1.5533-0.064-1.8703-0.37906-0.80665-0.80469 0.48125-0.19261 1.0095-0.27688 1.4727-0.25781zm8.8438 17.811c0.93546-4e-3 1.9336 0.55793 1.9336 1.4375 0 0.32337-0.93484 0.58789-2.0781 0.58789-1.1434 0-1.7028-0.61018-1.2422-1.3555 0.28541-0.46179 0.82544-0.66768 1.3867-0.66992zm9.418 10.988c-1.1933-0.039-2.7719 0.16463-5.1035 0.5332-9.4817 1.4989-11.713 5.6157-6.0469 11.154 3.1883 3.1163 7.5019 3.1795 14.666 0.21484 4.3584-1.8036 4.683-5.0113 0.94141-9.3144-1.5498-1.7824-2.4682-2.5228-4.457-2.5879zm-64.277 6.293c-0.96559-0.0414-1.8282 0.16413-2.3535 0.68945-0.65563 0.65562-0.79463 2.7705-0.31055 4.6992 0.72092 2.8724 1.415 3.3442 3.8359 2.6133 4.1091-1.2405 5.1737-2.4716 4.2402-4.9043-0.65956-1.7188-3.2878-3.0066-5.4121-3.0976zm-7.3672 0.041c-1.2353-0.1381-3.8398 3.3168-3.8398 5.2812 0 0.41489 1.2013 0.75391 2.668 0.75391 2.7879 0 3.8328-4.4545 1.3984-5.959-0.069-0.0427-0.14421-0.067-0.22656-0.0762zm-3.2598 9.3027c-0.069-3e-3 -0.0469 0.0824 0.0859 0.26562 0.93873 1.2951-2.0165 4.4668-4.1621 4.4668-1.0102 0-1.8359-0.9-1.8359-2 0-2.7156-2.225-2.5253-3.9102 0.33398-1.1994 2.035-1.5465 2.0783-2.7129 0.33399-2.0048-2.9982-1.6491 0.50554 0.46484 4.5801 1.7331 3.3406 12.725 11.42 15.537 11.42 0.70786 0 1.2871 0.98305 1.2871 2.1856 0 2.8249 3.8416 5.7175 7.666 5.7715 1.65 0.0233 3 0.51711 3 1.0977 0 0.58054 2.1013 2.0085 4.668 3.1719 2.5667 1.1632 4.666 1.6945 4.666 1.1816 0-1.243 16.79 0.82108 19.637 2.4141 4.6262 2.589 23.298-0.16145 24.557-3.6172 0.26024-0.71458 2.5342-1.6177 5.0527-2.0078 5.9044-0.91465 12.774-4.5455 17.598-9.3008 3.8737-3.8188 5.0014-5.7838 2.3965-4.1738-0.78442 0.4848-3.0344-0.89056-5-3.0566-3.6229-3.9925-10.906-6.9039-10.906-4.3594 0 0.74731-0.65401 1.3594-1.4531 1.3594-0.79912 0-2.5609 1.35-3.9141 3-2.1201 2.5853-2.8381 2.7702-5.1953 1.334-3.2881-2.0034-6.7715-2.1756-6.7715-0.33399 0 0.73334 0.60065 1.334 1.334 1.334 0.73334 0 1.332 0.55891 1.332 1.2422 0 1.3966-5.2536 1.1217-7.7226-0.4043-0.88565-0.54733-2.2478-0.60091-3.0274-0.11914-0.77954 0.48179-2.5414-0.14063-3.9141-1.3828-1.3726-1.2422-4.9312-2.3519-7.9082-2.4648-3.3271-0.12626-5.4158-0.84664-5.4199-1.8711-4e-3 -0.91667-1.2072-1.668-2.6738-1.668s-2.666 0.6355-2.666 1.4121c0 0.77659-0.55086 1.0734-1.2226 0.6582-0.6718-0.41519-2.7712-0.16575-4.666 0.55469-2.984 1.1345-3.4453 0.9569-3.4453-1.3242 0-3.1507-0.51662-3.2308-4.4102-0.67969-1.6493 1.0808-4.3109 1.6072-5.9531 1.1777-3.2612-0.85283-3.9137-2.5919-1.3027-3.4707 2.3401-0.7876-1.2233-4.9941-4.2305-4.9941-1.2302 0-2.9523-0.60431-3.8262-1.3438-0.54615-0.46215-0.91633-0.71684-1.0312-0.72265zm103.43 6.0879c-0.0507-0.11244-0.59661 0.29624-1.6758 1.1426-1.2833 1.0065-2.334 2.4549-2.334 3.2207 0 0.76577 0.16946 1.1434 0.37696 0.83789 0.2075-0.30556 1.2582-1.756 2.334-3.2227 0.90467-1.2333 1.3495-1.8661 1.2988-1.9785zm22.078 14.645c-6.215 0-8.1545 1.8306-3.5039 3.3066 1.4206 0.45089 3.3658 2.5926 4.3242 4.7578 0.95841 2.1652 2.518 3.9356 3.4648 3.9356 1.2888 0 1.3751-0.64735 0.3418-2.5781-0.75914-1.4185-1.3576-3.0678-1.3281-3.666 0.0294-0.59821 0.94892 0.56146 2.043 2.5781 1.0941 2.0167 2.8707 3.666 3.9473 3.666 1.0766 0 1.966 1.0506 1.9766 2.334 0.0163 1.8648 0.25707 1.9594 1.1973 0.47461 0.65822-1.0395 2.3418-1.5532 3.8223-1.166 2.3372 0.6112 2.1863 0.0117-1.2949-5.1465-4.83-7.1567-7.1916-8.4961-14.99-8.4961zm-12.973 0.084c-0.21774 0.0183-0.39381 0.0833-0.51172 0.20118-1.4487 1.4487 0.75066 8.7063 4.1602 13.73 4.4861 6.6106 4.0743 9.9908-2.0645 16.965-9.4358 10.72-31.804 20.309-62.031 26.592-12.225 2.5409-18.848 3.0526-39.781 3.0723l-25.113 0.0234-2.7226-3.334c-2.5306-3.0976-2.648-4.3241-1.6406-17.334 1.3762-17.773 1.4828-26.218 0.34375-27.357-1.9288-1.9288-17.759 8.3091-27.178 17.576-9.4612 9.3089-11.604 12.449-8.4961 12.449 0.77663 0 1.0016 0.66298 0.5 1.4746-0.63848 1.033-1.1766 1.0508-1.791 0.0566-0.51825-0.83855-2.384 0.46659-4.5566 3.1894l-3.6797 4.6113 3.0566 0.0215c2.3769 0.0159 2.6267 0.29168 1.1211 1.2441-1.065 0.67417-2.3457 0.9723-2.8477 0.66211-1.0844-0.67018-3.9486 2.5478-4.4551 5.0059-0.19637 0.95313-0.73792 2.6344-1.2031 3.7344-4.2779 10.115-4.9896 14.871-4.8867 32.648 0.05947 10.276-0.46175 21.987-1.1582 26.025-0.69645 4.038-0.95299 8.988-0.56836 11l0.69922 3.6582h219.99l-0.9375-4.9961c-0.51559-2.7483-1.399-5.2995-1.9629-5.668-1.3379-0.87394-3.996-20.744-3.5234-26.336 0.20142-2.3833 0.0122-4.332-0.41992-4.332-0.43211 0-0.79329-3.4513-0.80274-7.668-0.0238-11.409-1.9437-24.751-6.7852-47.137-1.8074-8.3575-3.2985-16.325-3.3125-17.705-0.0408-4.0189-7.5206-17.734-10.15-18.611-1.3209-0.44074-3.4237-1.5489-4.6719-2.4609-0.93612-0.68405-1.962-1.0568-2.6152-1.002zm-130.45 1.0234-7 5.041c-17.353 12.499-22.841 17.696-60.334 57.137-10.267 10.8-19.684 21.235-20.928 23.189l-2.2617 3.5527 17.674-0.27734 1.8105-5.209c0.99581-2.8644 1.4608-6.6217 1.0312-8.3496-0.94443-3.7988 1.7379-6.1817 9.3398-8.2988 6.4595-1.7989 8.668-3.4678 8.668-6.5508 0-4.0203 13.306-22.931 22.514-31.994 4.85-4.7741 13.469-11.376 19.152-14.672 9.0585-5.2526 10.334-6.4602 10.334-9.7812zm160.73 4.332c-0.73227-0.014-0.50063 0.56633 0.46875 1.7344 0.83957 1.0116 3.4234 2.2179 5.7422 2.6816 4.7234 0.94469 9.0586 4.3024 9.0586 7.0176 0 0.98633 0.54931 1.7949 1.2227 1.7949 0.67336 0 2.2724 0.40128 3.5527 0.89258 1.5026 0.57662 2.0105 0.38073 1.4336-0.55274-0.49154-0.79532-0.13999-1.7497 0.78125-2.1211 0.92124-0.37142-0.12422-0.74426-2.3242-0.82813l-4-0.15234 3.334-1.8496c2.8909-1.6045 3.6384-1.5754 5.6348 0.22461 1.266 1.1416 2.0229 2.5278 1.6816 3.0801-0.86588 1.401 2.4719 3.9445 6.9316 5.2832 5.7234 1.718 8.2774 1.5276 5.2012-0.38867-1.4023-0.87353-3.5398-2.526-4.75-3.6719-1.2102-1.1458-2.976-1.8257-3.9238-1.5098-1.1908 0.39694-1.4618-0.24913-0.87695-2.0918 1.0015-3.1553-0.39085-3.8547-10.217-5.1309-3.8589-0.5012-7.4573-1.5723-7.9961-2.3809-0.69042-1.0361-0.98564-0.99784-1 0.12891-0.0151 1.1797-1.2304 1.0917-4.6426-0.33399-2.8831-1.2047-4.5802-1.8122-5.3125-1.8262zm7.7422 8.2402c-0.17322 0.0732-0.0464 0.54985 0.30469 1.4648 0.4619 1.2037 1.3764 2.1894 2.0312 2.1894 1.7146 0 1.4738-0.77123-0.83985-2.6914-0.8489-0.70452-1.3229-1.0361-1.4961-0.96289zm30.518 1.5527c-1.0785-0.0168-1.1755 0.24243-0.32422 0.78516 1.1 0.70132 3.7498 1.2863 5.8887 1.2969 5.1574 0.0271 4.0362-0.74351-2.5547-1.7539-1.362-0.20879-2.3626-0.31802-3.0098-0.32813zm-40.072 0.73633c-0.40048 0.0325-0.76641 0.27244-1.1562 0.69141-1.213 1.3037-1.06 2.4035 0.66797 4.8281 1.2304 1.7265 3.4905 6.4339 5.0234 10.461 1.7348 4.5572 3.7492 7.5849 5.334 8.0195 1.7845 0.48944 2.6538 2.0945 2.9082 5.3652 0.61122 7.8596 4.5389 15.894 7.623 15.594 1.5476-0.15069 2.7577 0.58549 2.8613 1.7402 0.0987 1.1 0.24748 2.6794 0.33203 3.5117 0.24038 2.365 10.931 12.21 15.162 13.963 3.7622 1.5584 10.326 12.033 10.326 16.48 0 1.1244 0.75414 2.0449 1.6777 2.0449 2.1313 0 5.3359 5.0237 4.2871 6.7207-0.43479 0.70352-0.18829 1.2774 0.54687 1.2774 0.73515 0 2.3996 1.8 3.6992 4 1.2996 2.2 3.2654 4 4.3691 4 3.1748 0 16.086-3.1962 16.086-3.9824 0-0.39076-1.4342-2.2575-3.1875-4.1484-1.7534-1.8909-4.1684-5.3341-5.3672-7.6524-1.1988-2.3182-2.766-4.2148-3.4805-4.2148s-1.2988-0.64397-1.2988-1.4297c0-0.78569-0.74936-2.2025-1.666-3.1484-0.91673-0.94589-3.466-3.9503-5.666-6.6758-5.1057-6.3253-9.846-11.876-16.574-19.414-2.9457-3.3-5.371-6.4849-5.3906-7.0781-0.0196-0.59328-0.63581-0.70714-1.3691-0.25391-0.73334 0.45322-1.334 0.18694-1.334-0.58985 0-0.77677-3.1633-4.5623-7.0293-8.4121-3.866-3.8498-8.6084-9.698-10.539-12.998s-4.9167-7.2404-6.6367-8.7559c-1.72-1.5155-4.6276-4.5972-6.4609-6.8477-1.8204-2.2345-2.867-3.1671-3.748-3.0957zm53.082 1.5391c-0.60416 0-1.2096 0.0924-1.668 0.27735-0.91666 0.36989-0.16536 0.67187 1.668 0.67187 1.8334 0 2.5827-0.30201 1.666-0.67187-0.45834-0.18494-1.0618-0.27735-1.666-0.27735zm18.58 1.1309c-0.71257 0.0344-1.248 0.45627-1.248 1.3613 0 0.73333-1.1993 1.334-2.666 1.334-1.4667 0-2.666 0.50729-2.666 1.127 0 1.7834 4.7859 5.6418 5.7734 4.6543 0.4905-0.49049 0.89258-0.2556 0.89258 0.52149 0 2.1386-3.045 2.8771-9.502 2.3047-3.2065-0.2843-4.6568-0.1693-3.2207 0.25586 1.4361 0.42516 3.9258 1.6343 5.5332 2.6875 2.3588 1.5456 3.0771 1.5802 3.7226 0.18164 0.6305-1.366 0.96501-1.3803 1.5781-0.0664 1.0791 2.3124 3.2226 2.092 3.2226-0.33203 0-3.406 1.9877-2.196 2.1914 1.334 0.12884 2.2326-0.53124 3.379-2 3.4727-1.2057 0.0769 0.20727 0.92974 3.1406 1.8965 6.262 2.0638 13.149 2.4888 12.07 0.74414-0.41454-0.67069-0.0886-1.4418 0.72461-1.7129 0.81327-0.27108-0.37979-2.4832-2.6524-4.916-2.2726-2.4328-3.8775-4.8347-3.5664-5.3379 0.31098-0.50317-1.1631-1.6802-3.2754-2.6152-2.1124-0.935-4.2093-2.8626-4.6602-4.2832-0.52349-1.6494-2.205-2.6686-3.3926-2.6113zm31.963 8.4512c-1.0263-0.0737-1.929 0.73664-2.2637 2.4609-0.21298 1.0973 0.80493 2.5474 2.2637 3.2227 3.2896 1.5228 20.123 17.719 20.123 19.361 0 3.1664-4.1112 0.31459-13.004-9.0215-11.338-11.904-16.444-13.862-18.768-7.1973-1.5787 4.5286 0.54327 7.118 7.1055 8.6758 2.2 0.52225 5.8 2.3088 8 3.9688 2.2 1.66 5.5251 3.3926 7.3906 3.8516 1.8655 0.45896 6.0661 3.2464 9.334 6.1934 6.2262 5.6148 8.5606 6.5035 9.791 3.7285 0.40626-0.91666 0.60745-0.52926 0.44531 0.86133-0.30939 2.6557 0.61149 3.0805 13.039 6 3.6667 0.86135 9.2142 2.5939 12.328 3.8516 4.7304 1.9105 5.6622 2.8896 5.666 5.9531 3e-3 2.3516-0.7023 3.668-1.9688 3.668-1.086 0-2.3553 1.5145-2.8203 3.3672-0.46499 1.8526-1.9623 3.9663-3.3281 4.6973-2.0352 1.0892-2.331 0.93313-1.6387-0.87109 0.54909-1.4309-0.27804-3.0648-2.3633-4.668-4.3922-3.3768-8.2632-3.3177-4.209 0.0645 1.65 1.3765 2.9918 3.3066 2.9805 4.2891-0.0154 1.3498-0.33756 1.2986-1.3145-0.2129-0.71085-1.0999-1.3012-1.4566-1.3125-0.79296-0.0563 3.325-5.5044-4.3468-6.207-8.7402-0.44704-2.7958-1.5425-5.6905-2.4355-6.4316-1.0099-0.83817-0.36676 3.6276 1.7012 11.812l3.3242 13.158 4.3672-2.5762c2.4024-1.4174 6.9624-2.8209 10.133-3.1191 3.1704-0.29805 7.4388-1.0254 9.4863-1.6152 3.6565-1.0534 3.6784-1.1191 1.2363-3.7402-3.4666-3.721-4.8116-9.106-2.0059-8.0293 1.7388 0.66722 1.8073 0.45967 0.40625-1.2285-1.4209-1.7119-1.2342-2.0312 1.1973-2.0312h2.8848l-3.0547-3.2148c-1.6797-1.768-5.9514-5.3998-9.4941-8.0723-5.1981-3.9212-6.8124-4.5504-8.3652-3.2617-1.0583 0.87834-2.0798 1.3601-2.2695 1.0723-0.18988-0.28783-1.227-2.3047-2.3027-4.4824-2.2643-4.584-6.031-8.707-7.9551-8.707-0.73338 0-1.334-0.89999-1.334-2 0-1.1-0.72211-1.8494-1.6055-1.666-0.88332 0.18333-1.632-0.3671-1.666-1.2227-0.11063-2.8398-2.0606-3.605-2.0606-0.80859 0 1.5104 0.90001 3.0916 2 3.5137 2.4251 0.93059 2.6398 4.3683 0.33203 5.3047-1.2542 0.50892-1.1711 1.0254 0.33399 2.0898 1.7317 1.2246 1.6929 1.4178-0.29102 1.4356-1.4854 0.0132-2.0209 0.72309-1.5234 2.0195 0.42209 1.1 0.19797 2-0.4961 2-1.4227 0-4.3555-5.8188-4.3555-8.6406 0-2.7737-13.72-16.165-17.545-17.125-1.833-0.46006-4.0425-2.3981-4.9121-4.3066-0.82354-1.8074-1.9737-2.7642-3-2.8379zm-8.2891 7.5977c0.87337-0.0112 1.9589 0.57917 2.4121 1.3125 1.0231 1.6554 0.5615 1.6554-2 0-1.2017-0.77661-1.3662-1.3004-0.41211-1.3125zm-1.666 3.0957c0.2129-0.0211 0.46914 0.0468 0.74414 0.2168 0.73331 0.45323 1.334 1.0887 1.334 1.4121 0 0.3234-0.60068 0.58789-1.334 0.58789-0.73334 0-1.332-0.6355-1.332-1.4121 0-0.48538 0.23307-0.76956 0.58789-0.80469zm0.73633 7.4219c-0.21907 0.0212-0.46187 0.15523-0.72265 0.41601-0.4023 0.40236-0.26032 2.4515 0.3164 4.5547l1.0488 3.8242 0.44922-3.7871c0.36423-3.0666-0.14247-5.0995-1.0918-5.0078zm7.1191 5.4629c-2.9396 0-3.7795 0.57907-3.377 2.332 0.21052 0.91667-0.28094 1.668-1.0918 1.668-1.882 0-0.59665 12.935 1.9648 19.775 1.0072 2.6897 1.8776 5.7906 1.9336 6.8906 0.26135 5.1492 1.1533 7.6947 4.0938 11.672h2e-3c1.7466 2.3624 3.3689 4.0998 3.6074 3.8613 0.595-0.59501 1.9399-11.531 1.8613-15.135-0.0353-1.6136 0.52784-3.2986 1.252-3.7461 1.7026-1.0523-0.61233-5.4509-4.834-9.1797-1.7477-1.5437-3.3491-4.006-3.5566-5.4727-0.20746-1.4667-0.88506-3.4838-1.5078-4.4824-0.65201-1.0453-0.57994-2.1761 0.16992-2.666 1.9354-1.2644 1.5361-5.5176-0.51758-5.5176zm-46.777 1.3535c-1.65-0.0112-3 0.57917-3 1.3125 0 1.6706 1.415 1.6706 4 0 1.6173-1.0452 1.4259-1.2959-1-1.3125zm3.2012 3.1484c-2.562-0.0101-4.8672 0.82645-4.8672 2.0371 0 1.4695 11.227 12.801 12.332 12.447 0.55-0.17609 1 0.78568 1 2.1387 0 1.353 1.261 3.6028 2.8027 4.998 1.5418 1.3952 3.586 4.038 4.541 5.873 0.95502 1.8351 4.1209 5.123 7.0371 7.3066 3.301 2.4718 5.0259 4.6924 4.5684 5.8848-0.50241 1.3091-0.19158 1.5784 0.98438 0.85156 1.1263-0.69604 3.1925 0.54459 5.9824 3.5898 2.344 2.5586 5.1227 4.9916 6.1738 5.4062 3.1432 1.2401 3.5552 1.0719 3.3613-1.3691-0.24847-3.127-4.843-16.629-6.2812-18.457-0.62967-0.80079-0.75202-1.8495-0.26954-2.332 0.48254-0.48252 0.14296-0.87695-0.75585-0.87695-0.89897 0-1.2553-0.61597-0.79102-1.3672 0.46431-0.75124 0.4154-3.3006-0.10937-5.666-0.78191-3.5242-1.1166-3.8446-1.8516-1.7734-0.71792 2.0232-1.4777 1.1749-3.8105-4.248-1.6029-3.7261-2.9141-7.3384-2.9141-8.0293 0-0.69092-0.99756-2.0795-2.2168-3.0859-1.7283-1.4266-2.342-1.4634-2.7793-0.16407-0.30852 0.91667-1.7465 1.666-3.1953 1.666-1.4488 0-2.2974 0.54449-1.8867 1.209 0.41067 0.66448 2.0405 0.87037 3.6211 0.45704 1.9157-0.50099 2.5666-0.25635 1.9531 0.73632-0.50616 0.81902-0.1735 2.6872 0.74023 4.1504 0.91314 1.4631 1.3329 2.9894 0.92969 3.3926-1.3304 1.3304-9.0107-3.3521-9.8535-6.0078-0.45452-1.4322-1.3864-2.6778-2.0703-2.7695-0.6839-0.0917-1.8428-0.31666-2.5762-0.5-0.73334-0.18332-1.9327-0.40827-2.666-0.5-0.7333-0.0917-1.334-1.0029-1.334-2.0234 0-1.0205-1.4515-2.2186-3.2266-2.6641-0.83499-0.20957-1.7183-0.30717-2.5723-0.31055zm-36.947 6.1641c-0.77659 0-1.0411 0.60065-0.58789 1.334 0.45323 0.73333 1.0887 1.332 1.4121 1.332s0.58789-0.5987 0.58789-1.332c0-0.73334-0.63549-1.334-1.4121-1.334zm102.47 9.334c-0.57948 0-1.0729 1.35-1.0918 3-0.0204 1.65-1.8203 5.3557-4 8.2363-2.1796 2.8806-3.9629 6.2952-3.9629 7.5879 0 1.2928-0.59872 2.7206-1.332 3.1738-0.73334 0.45324-1.334 2.5894-1.334 4.7461 0 2.1567-0.51941 3.9219-1.1543 3.9219-0.635 0-0.71608 2.3987-0.17969 5.332 0.92414 5.0535 0.67953 5.8626-1.666 5.4922-1.4171-0.22374-1.2394 5.5805 0.4707 15.4l1.4688 8.4414h6.5644c5.864 0 6.7043-0.37485 7.8984-3.5156 0.73505-1.9333 1.5-4.4826 1.6992-5.666 0.19933-1.1834 1.0821-3.4626 1.9629-5.0644 1.8114-3.2942 2.0921-7.4832 0.60156-8.9805-0.54999-0.55249-1-2.8461-1-5.0977s-0.76744-4.3556-1.707-4.6758c-0.93959-0.32028-1.6043-0.0777-1.4766 0.54102 0.12782 0.61874-0.58 3.2263-1.5723 5.793l-1.8047 4.666-0.93946-5.334c-0.51734-2.9333-0.45389-7.5856 0.14063-10.34 0.61047-2.8274 0.56046-5.3297-0.11328-5.7461-0.65635-0.40566-1.1934-1.3744-1.1934-2.1543 0-0.87689 0.78494-0.76832 2.0566 0.28711 1.4096 1.1699 2.4874 1.2763 3.4277 0.33594 0.94031-0.94035 0.28089-2.231-2.0996-4.1035-2.7922-2.1964-3.0463-2.8185-1.291-3.1719 1.6088-0.32402 2.2487-2.1065 2.4316-6.7734 0.13659-3.4834-0.22517-6.332-0.80469-6.332zm27.879 1.5898c-0.19988 8e-3 -0.36723 0.0664-0.48828 0.1875-0.45347 0.45347-0.0663 1.7378 0.86133 2.8555 1.8536 2.2335 4.0273 2.6999 4.0273 0.86328 0-1.4919-3.0012-3.9609-4.4004-3.9062zm-16.496 5.3164c-0.0614-8e-3 -0.11379-5e-3 -0.1582 8e-3 -0.29607 0.087-0.21696 0.65488 0.20703 1.7598 0.56062 1.461 0.24927 2.8916-0.77344 3.5527-1.196 0.77313-1.275 1.4068-0.26171 2.1055 2.0772 1.4323 3.0898 6.3894 1.7402 8.5195-0.84336 1.3312-1.1548 1.3712-1.1699 0.14844-0.0112-0.91668-0.92145-1.668-2.0215-1.668-1.1 0-2 0.53653-2 1.1914 0 0.65486 0.90001 1.5349 2 1.957 1.3706 0.52591 2 2.67 2 6.8105 0 6.874 1.3024 7.5319 5.1699 2.6152 2.1502-2.7336 2.4307-4.1192 1.3926-6.8496-0.71565-1.8823-1.6404-5.5903-2.0547-8.2402-0.4142-2.6499-1.2342-4.9964-1.8223-5.2148-0.58809-0.21849-0.78036-1.5008-0.42773-2.8496 0.3527-1.3487-0.11138-2.9186-1.0332-3.4883-0.34077-0.2106-0.60275-0.33225-0.78711-0.35742zm24.723 25.252c-0.96667-5e-3 -1.9813 0.071-2.8106 0.23047-1.6585 0.31875-0.615 0.5923 2.3184 0.60742 2.9331 0.0148 4.2904-0.24634 3.0156-0.58008-0.63738-0.16667-1.5568-0.25299-2.5234-0.25781zm-52.814 2.7129c-0.21436-0.0475-0.28768 0.37141-0.30469 1.2383-0.0223 1.1611 0.35877 2.5111 0.84766 3 1.6267 1.6267 2.0431-0.20879 0.60742-2.6777-0.58114-0.99927-0.93604-1.513-1.1504-1.5606zm-71.123 1.293c-0.4632-0.019-0.99141 0.0653-1.4727 0.25781-1.0636 0.42562-0.74662 0.74082 0.80665 0.80469 1.4055 0.0579 2.193-0.25618 1.75-0.69922-0.22153-0.22148-0.62079-0.34424-1.084-0.36328zm-297.7 3.2656c-1.6178-0.13047-6.9565 7.3958-9.1426 13.551-1.2493 3.5175-3.5191 7.7372-5.0449 9.375l-2.7754 2.9766 3.0527-0.043c4.2787-0.0594 7.3909-2.7831 8.4238-7.373 0.4849-2.1547 2.0248-6.4597 3.4219-9.5684 1.397-3.1086 2.5388-6.7086 2.5371-8-8.08e-4 -0.60673-0.17307-0.8938-0.47266-0.91796zm-14.291 2.5703c-0.60215-0.0837-1.2913 0.73753-1.625 2.0137-0.44937 1.7184-0.03356 2.6523 1.1816 2.6523 2.0602 0 2.579-3.408 0.69531-4.5723-0.08125-0.0502-0.16593-0.0819-0.25195-0.0937zm319.73 0.82617c-0.71143 0-0.96875 0.3894-0.96875 1.1719 0 0.73334 1.6513 1.2916 3.668 1.2402 3.2491-0.083 3.363-0.22483 1-1.2402-1.8209-0.78248-2.9878-1.1719-3.6992-1.1719zm37.697 0.0781c-2.8758-0.10483-7.2506 0.68904-14.666 2.3242-6.2333 1.3745-11.808 2.2088-12.391 1.8535-0.58213-0.35509-1.7834-0.0812-2.668 0.60938-2.457 1.9181-7.43 2.8428-7.8887 1.4668-0.48132-1.444-21.052 1.3428-23.053 3.123-0.78725 0.70053 0.93232 0.8263 4.1973 0.30469 4.8622-0.77677 5.6362-0.54369 6.4219 1.9316 0.49141 1.5484 1.4548 2.8144 2.1387 2.8144 0.6839 0 1.2422 1.1083 1.2422 2.4629 0 1.3546 1.35 3.1144 3 3.9102h2e-3c1.806 0.87099 12.95 1.4827 28 1.5371 21.373 0.0771 25-0.2003 25-1.9102 0-1.1-0.90001-2-2-2-1.1 0-2-0.63549-2-1.4121 0-0.77658 0.60064-1.0411 1.334-0.58789 2.225 1.3751 1.4891-2.9855-0.9082-5.3828-2.1-2.0988-2.0994-2.3209 8e-3 -3.5 2.1023-1.1765 2.095-1.4687-0.0937-4.4785-1.4235-1.9574-2.8-2.9616-5.6758-3.0664zm15.859 1.0957c-0.65486 0-1.1914 1.1994-1.1914 2.666 0 2.5989 1.4145 3.4742 3.0195 1.8691 1.0682-1.0681-0.32943-4.5352-1.8281-4.5352zm-390.3 0.0586c-0.72786 0.0502-1.7236 1.0311-2.3145 2.8926-0.68139 2.1469-0.25896 3.3267 1.5488 4.332 1.3668 0.7601 3.9968 3.0099 5.8457 4.998 4.4384 4.7724 5.1241 4.6258 4.9629-1.0625-0.12078-4.261-0.32318-4.5237-1.8672-2.4121-0.95288 1.3032-1.7324 1.7499-1.7324 0.99414 0-0.75575-1.4529-2.0347-3.2285-2.8438-2.3573-1.0741-3.0355-2.212-2.5117-4.2148 0.48488-1.8542 0.024733-2.7338-0.70312-2.6836zm9.8555 1.2734c-0.32339 0-0.95888 0.60068-1.4121 1.334-0.45323 0.73335-0.18872 1.334 0.58789 1.334 0.77661 0 1.4121-0.60064 1.4121-1.334 0-0.7333-0.26451-1.334-0.58789-1.334zm386.51 3.1953c-0.48119 0.04-0.9543 0.31738-1.2422 0.78321-0.46061 0.74528 0.0969 1.3555 1.2402 1.3555 2.3421 0 2.6873-0.80039 0.83789-1.9434-0.256-0.15821-0.54722-0.21932-0.83594-0.19531zm-55.258 3.6445c0.60417 0 1.2077 0.0923 1.666 0.27735 0.91667 0.36975 0.16732 0.67187-1.666 0.67187-1.8333 0-2.5827-0.30186-1.666-0.67187 0.45834-0.18501 1.0618-0.27735 1.666-0.27735zm56 1.1602c-1.5532 0-2.4532 0.60064-2 1.334 0.45324 0.73335 1.3532 1.334 2 1.334s1.5468-0.60064 2-1.334c0.4532-0.73334-0.44673-1.334-2-1.334zm-88.234 0.31836c-1.2121 0.0147-2.554 0.69343-3.498 2.1152-1.0591 1.5951-2.6971 2.9004-3.6387 2.9004-1.3324 0-1.3812 0.70068-0.21874 3.1641 1.3315 2.8214 2.3903 3.1692 9.7441 3.207 7.6688 0.0388 8.2934-0.183 8.8633-3.1641 0.6842-3.5792-2.5578-4.6239-3.8555-1.2422-0.64731 1.6868-1.0199 1.7008-2.625 0.0957-1.0288-1.0288-1.8711-2.8324-1.8711-4.0078 0-2.0089-1.342-3.0872-2.9004-3.0684zm34.508 1.5078c0.38349 0.0387 0.738 0.31795 1.0605 0.83985 0.53221 0.86112 0.36615 2.167-0.36718 2.9004-0.8889 0.88883-1.6557 0.81137-2.3008-0.23243-0.53221-0.86112-0.3681-2.167 0.36524-2.9004 0.44444-0.44439 0.85869-0.64615 1.2422-0.60742zm-33.787 2.1934c0.56059 0.0207 0.89099 0.51454 0.54101 1.5644-0.29028 0.87085-1.24 1.8211-2.1113 2.1113-0.97432 0.32478-1.2737-0.28545-0.77539-1.584 0.52314-1.3633 1.625-2.1184 2.3457-2.0918zm84.293 1.6641c-1.1528 0.025-1.7691 0.46164-1.3965 1.0645 0.93668 1.5155 4.6172 1.6775 4.6172 0.20312 0-0.57725-1.2128-1.142-2.6953-1.2539-0.18532-0.014-0.3607-0.0172-0.52539-0.0137zm6.459 0.71094c-0.17263 0.093-0.29596 0.89649-0.3125 2.2715-0.0272 2.2 0.25013 3.2621 0.61523 2.3594 0.36548-0.9027 0.38675-2.7027 0.0488-4-0.12671-0.48648-0.24798-0.68667-0.35156-0.63086z" stroke-width="1.3333"/>
 </g>
</svg>
