<svg width="75vw" height="45vw" viewBox="0 0 100 100"><path d="M35.465.239a6.17 6.17 0 00-.294.002c-.556.015-.812.108-.57.206.571.23.578.929.008.739-.239-.08-.745.145-1.125.5-.38.354-.917.644-1.192.644-.3 0-.419.212-.297.529.254.663-.103.659-.99-.011-.795-.602-1.254-.664-1.254-.169 0 .626-2.795 4.394-3.422 4.614-.336.118.15.226 1.08.24.93.014 1.773.108 1.875.21.351.351-.252.883-1.252 1.103-.552.121-1.464.701-2.024 1.289l-1.02 1.068.97-.241c1.213-.302 1.27.26.091.89-.668.358-1.104 1.177-1.815 3.412-.516 1.617-1.073 2.94-1.238 2.94-.166 0-.3.425-.3.943s-.276 1.246-.613 1.618c-.719.794-.747 2.723-.11 7.493.233 1.747.422 3.764.419 4.484-.003.72.357 2.625.8 4.233l.947 3.446c.09.326-.152.565-.65.641-1.224.187-.943.71.606 1.127.77.208 1.523.587 1.675.844.152.257.5.539.775.627.275.087.519.595.542 1.128.032.738-.234 1.14-1.117 1.685-1.552.96-1.637 1.833-.097 1.01.693-.372 2.466.177 2.466.763 0 .163.16.296.353.296.194 0 .363-.436.375-.97l.023-.97.367.882c.202.485.37 1.756.373 2.823.003 1.067.16 2.132.347 2.366.235.294.07.697-.535 1.302-.98.98-.878 1.355.29 1.062.519-.13.853-.01.994.359.117.305.048.555-.153.555-.202 0-.603.235-.89.523-.368.367-1.005.474-2.145.358-1.712-.173-2.04-.332-2.052-.999-.005-.226-.284-.364-.62-.307-.368.063-.748-.22-.95-.705-.371-.89-1.584-2.398-1.928-2.398-.37 0 .773 1.875 1.991 3.267.95 1.084 1.536 1.4 3.209 1.728 1.914.376 2.118.35 3.142-.408 1.048-.775 1.115-.782 1.565-.167.258.353.564 1.21.681 1.903.299 1.774 1.182 4.178 2.178 5.926.466.819.748 1.65.626 1.848-.122.197-.015.28.237.184.33-.126.426-.822.341-2.466-.076-1.484.017-2.29.265-2.29.21 0 .386.358.389.794.003.56.091.657.299.33.451-.712.064-2.166-.518-1.943-.385.148-.493-.24-.493-1.789 0-1.523-.121-1.978-.529-1.978-.29 0-.546-.278-.568-.617-.209-3.263-.45-3.97-1.354-3.97-.481 0-.787-.311-.949-.969-.267-1.084-1.05-2.407-1.98-3.346-.339-.342-.627-.821-.64-1.064a52.053 52.053 0 00-.138-1.625c-.08-.83.098-1.398.597-1.897.635-.635.686-.992.476-3.318-.197-2.172-.145-2.642.308-2.816.3-.115.544-.366.544-.557s.323-.804.718-1.358c.38-.533.72-1.413.784-2.005-.003-.013-.009-.02-.012-.035-.007-.03.008-.06 0-.09.002-.081.005-.163-.008-.244.002-.043.01-.17.042-.21.001-.02.004-.047 0-.031v-.3c0-.093-.003-.186 0-.279.001-.023 0-.048.005-.07.002-.007.142.246-.025-.054.016.016-.003-.002-.005-.023 0-.003.006-.001.009-.002l-.067-.069a.752.752 0 01-.064-.093c-.012-.022-.02-.046-.03-.07-.026-.053-.045-.095-.075-.147-.018-.032-.039-.062-.056-.094-.011-.02-.018-.043-.029-.063-.035-.065-.081-.123-.11-.192-.02-.044-.042-.088-.058-.133-.077-.222.005-.011-.024-.119-.005-.022-.016-.043-.021-.065-.018-.075.06.087-.027-.07-.037-.067-.046-.077-.075-.166-.002-.008.003-.016.001-.024-.02-.087-.07-.165-.077-.256-.005-.044-.016-.087-.02-.131 0-.005.01-.006.01-.01-.01-.023-.026-.041-.036-.063-.057-.12-.047-.089-.064-.188-.085-.333.017.08-.033-.168-.006-.03-.017-.058-.023-.088-.003-.014 0-.03-.003-.044-.005-.022-.014-.043-.019-.066l.002-.022c-.02-.042-.071-.146-.079-.167-.005-.014-.003-.03-.005-.044-.004-.022-.012-.044-.014-.067 0-.005.009-.008.008-.013-.003-.011-.012-.02-.018-.031-.021-.026-.046-.05-.064-.077a1 1 0 01-.139-.509c0-.013.003-.027 0-.04-.012-.04-.027-.04-.04-.074a.365.365 0 01-.038-.184c0-.088-.002-.176.001-.265.003-.08-.009-.16-.003-.24-1.903-.017-1.982-.128-1.982-.815 0-.45.252-1.561.562-2.469.475-1.395.707-1.655 1.499-1.678.515-.016.739-.108.496-.206-.243-.098-.44-.333-.44-.523 0-.21.652-.25 1.674-.102 1.945.283 2.198.427 1.5.859-.867.536-.229.681 1.391.317.852-.191 1.8-.236 2.108-.1.307.136.677.222.822.191.146-.03.265.103.265.297 0 .563 2.48.387 4.533-.322 1.242-.429 2.396-1.178 3.375-2.193 1.541-1.597 3.792-3.129 4.598-3.129.255 0 .91-.595 1.456-1.323.991-1.32 1.275-1.594 2.255-2.184.43-.258.369-.438-.353-1.047-.48-.405-1.15-.671-1.489-.593-.34.078-.539.015-.443-.14.096-.156-.056-.372-.337-.48-.414-.159-.447-.027-.174.691.539 1.419.418 1.418-1.042-.008-.759-.741-1.52-1.26-1.693-1.153-.172.106-.544.047-.825-.131-.444-.28-.444-.324-.004-.33.365-.003.314-.151-.177-.523-.66-.5-.653-.518.198-.518.485 0 1.19.234 1.567.518 1.092.827 1.371.601.55-.444C50.943 9.58 48.252 7.712 47 7.436c-1.15-.253-1.049-.87.146-.879.628-.004.673-.07.243-.348-.29-.188-.905-.344-1.366-.347-.703-.004-.767-.09-.398-.534.494-.595.29-.641-2.38-.535-.934.036-1.5-.095-1.5-.349 0-.258.354-.333.97-.203.534.112 1.196.059 1.472-.119.534-.343-.398-.842-3.324-1.781-.776-.25-1.676-.684-2-.966C38.41.98 38.11.95 37.55 1.25c-.6.321-.691.296-.52-.148.28-.73-.215-.68-.784.08-.42.561-.444.545-.262-.177.152-.603.089-.755-.518-.768zM42.38 1.7c-.449.023-.02.613.9.984 1.04.42 1.149.413 1.567-.09.272-.33.17-.454-.398-.49a8.034 8.034 0 01-1.613-.32 1.369 1.369 0 00-.456-.084zm6.672 2.432c-.25-.022-.06.267.51.953a38.918 38.918 0 011.531 1.991c.388.55 1.38 1.775 2.205 2.723.825.95 1.5 1.87 1.5 2.045s.463.827 1.03 1.447c1.17 1.282 2.199 1.232 1.914-.093-.155-.723-.121-.75.298-.244.26.314 1.025.688 1.701.83 1.228.26 3.523 2.1 3.523 2.825 0 .359.427.929 2.91 3.884.534.636.97 1.269.97 1.407 0 .139.29.673.642 1.188.858 1.252 1.474 3.495 1.48 5.387.003.85.1 1.904.218 2.34.438 1.636.58.687.393-2.646-.143-2.576-.434-4.059-1.156-5.908a212.139 212.139 0 01-1.328-3.476c-.2-.553-.71-1.516-1.134-2.14-1.05-1.55-1.336-2.87-.803-3.723.74-1.185-.347-1.902-2.98-1.964-2.806-.067-4.148-.44-4.923-1.367-.462-.552-.62-.604-.633-.207-.015.47-.055.47-.359 0-.188-.29-.344-.375-.347-.186-.003.189-.253-.01-.555-.44-.302-.432-.71-.785-.907-.785-.548 0-1.364-.939-1.084-1.249.136-.15-.025-.176-.358-.057-.334.12-.7.065-.815-.12-.115-.186.079-.342.43-.348.609-.01.608-.028-.011-.388-.357-.208-1.041-.303-1.52-.211-.599.114-.818.03-.702-.273.093-.243-.223-.62-.702-.838-.48-.218-.788-.344-.938-.357zM28.734 6.21c.388 0 .607.159.487.353-.12.194-.535.353-.923.353s-.608-.159-.488-.353c.12-.194.536-.353.924-.353zm-6.717 14.859c.058-.02.282.3.543.783.299.55.477 1.067.396 1.147-.156.156-.976-1.481-.952-1.9 0-.018.005-.027.013-.03zm-.006 1.722c.205 0 .275.158.155.352-.12.194-.288.353-.374.353-.085 0-.155-.159-.155-.353 0-.194.168-.352.374-.352zm13.668 6.933l-.02.051.001.03.007-.033.012-.048zm35.285 1.554c-.358.04-.644.742-.644 1.764 0 .783.17 1.39.391 1.39.24 0 .336-.478.248-1.23-.079-.675.023-1.288.226-1.362.203-.073.26-.25.128-.394a.48.48 0 00-.277-.167.293.293 0 00-.072-.001zm1.064.685c-.58 0-.42 2.42.269 4.057.707 1.678 1.105 3.706 1.417 7.231.078.873.216 1.792.308 2.042.091.25-.07.545-.357.655-.394.151-.508.735-.46 2.368.06 2.058.07 2.081.198.453.1-1.293.291-1.756.776-1.882 1.524-.399 1.798-6.477.483-10.732-.565-1.827-.596-1.86-.811-.841-.209.989-.267.914-.897-1.147-.37-1.212-.788-2.205-.926-2.205zm-38.462.057c0-.005-.002.013 0 .019v-.006-.013zm31.024 1.993c-.917.02-2.288.356-3.042.912-.76.56-.991.908-.686 1.03.707.284.756.278 2.493-.314.895-.305 1.816-.782 2.046-1.058.341-.411-.097-.586-.81-.57zm-20.244 2.146c-2.244.004-4.366.437-4.366.989 0 .264-.238.572-.53.684-.29.112-.529.424-.529.694 0 .637.66.622 2.269-.05.827-.345 1.738-.459 2.515-.313 1.738.326 4.282-.122 4.542-.8.308-.803.115-.896-2.353-1.134a16.003 16.003 0 00-1.548-.07zm26.85 1.13c-.162.017-.189.19-.09.535.105.366.39 1.459.631 2.429.242.97.497 1.972.566 2.227.192.706.837.128.835-.749-.002-1.203-1.192-4.228-1.735-4.409a.511.511 0 00-.207-.034zm-7.238.318c-1.393 0-2.134.251-3.71 1.259-1.843 1.18-2.375 2.149-1.122 2.048.306-.025.477.152.384.395-.093.242.183.53.615.644.643.168.706.297.354.722-.348.42-.31.548.206.682 1.663.431 2.224.266 2.224-.653 0-.671.292-1.035 1.146-1.432.63-.293 1.544-.759 2.03-1.035.484-.277 1.16-.505 1.501-.508.524-.004.555-.11.196-.686-.611-.978-1.832-1.436-3.824-1.436zm1.068 1.41a.354.354 0 010 .707.354.354 0 01-.353-.353c0-.194.159-.353.353-.353zm-18.24.897c-.406 0-.737.057-.81.152-.097.127-1.129.602-2.293 1.057-3.102 1.212-4.387 2.256-4.25 3.451.081.713.285.947.77.882.361-.05 2.128-.129 3.925-.177 2.496-.067 3.227.016 3.098.353-.246.642 1.736.566 2.278-.087.241-.291.836-.53 1.321-.53.704 0 .801-.097.484-.48-.22-.264-.834-.421-1.367-.35-.532.07-.769.034-.526-.08.242-.114.44-.511.44-.883 0-.516.251-.676 1.059-.676.706 0 1.058-.177 1.058-.53a.53.53 0 01.53-.529c.612 0 .704-.555.149-.898-.209-.13-1.28-.307-2.381-.394-1.101-.088-2.478-.205-3.06-.26a4.633 4.633 0 00-.425-.02zm-21.457.54c.08.011.187.174.31.493.108.285.046.612-.14.727-.185.114-.337-.119-.337-.518 0-.48.062-.716.167-.702zm-3.749 1.85c-.493.04-.641.608-.601 1.938l.05 1.655.215-1.377c.143-.92.44-1.457.894-1.615.632-.22.636-.253.056-.475-.247-.095-.45-.14-.614-.127zm25.246.34c.065-.004.155.06.279.184.329.33.329.518 0 .847-.33.33-.424.235-.424-.424 0-.411.037-.602.145-.608zm-25.42 3.524c-.053.018-.06.188-.034.527.033.434.185.79.338.79.368 0 .342-.41-.065-1.054-.098-.155-.167-.243-.213-.261a.038.038 0 00-.026-.002zm3.564 4.894c-.148-.004-.168.104-.09.335.09.274.443.551.785.617.34.066.923.424 1.294.794.714.714 2.79.934 2.79.296 0-.716-.924-1.3-2.313-1.462-.765-.09-1.691-.293-2.057-.452-.186-.081-.32-.125-.409-.128zm41.113 1.009l.705.705c.389.388.861.706 1.05.706s.605.396.923.881c.744 1.136.986 1.12.693-.046-.289-1.15-1.522-2.219-2.577-2.235zm-3.854 1.461a.666.666 0 00-.361.115c-.21.13-.283.398-.16.596.148.24.345.234.599-.02.34-.339.228-.682-.078-.691zm-.234 1.396c-.628-.008-1.19.084-1.398.28-.196.184-1.35.174-2.791-.025-1.79-.248-2.879-.222-4.01.095l-1.555.435 1.188.634c.654.348.99.64.748.648-.242.008-.441.25-.441.54 0 .34-.5.604-1.42.751-.78.125-1.503.365-1.607.533-.105.169-.468.307-.808.307s-.96.318-1.376.706c-.416.388-.922.705-1.124.705-.403 0-.401-.008-.547 1.764-.056.679.068 1.34.274 1.468.49.304 2.623-.023 3.962-.608.582-.255 2.487-.727 4.233-1.05 4.16-.768 6.286-1.381 6.445-1.858.09-.27-.211-.288-1.003-.061-.623.179-1.282.232-1.466.119-.615-.38.424-.99 1.766-1.034.723-.025 1.631-.174 2.02-.333.567-.231.532-.134-.177.495-.771.685-.793.762-.176.619 2.141-.499 3.351-.583 3.351-.233 0 .241.35.2.97-.112.534-.27 1.169-.42 1.411-.333.583.208.97-.85.515-1.405-.197-.24-.414-.833-.48-1.318s-.282-.856-.476-.824c-.194.032-.555-.11-.802-.315-.247-.205-.533-.29-.636-.187-.102.103.2.49.672.862.723.569.79.771.421 1.276-.531.726-1.395.8-1.124.095.106-.277-.036-.693-.315-.925-.428-.355-.477-.26-.31.592.155.795.028 1.117-.592 1.496-.695.425-.847.405-1.269-.172-.318-.435-.351-.698-.1-.782.255-.085.232-.306-.072-.672-.394-.475-.339-.514.426-.3l.88.245-.834-.724c-.524-.456-.655-.733-.352-.748.264-.014.162-.162-.226-.328-.473-.204-1.167-.31-1.795-.318zm-5.819.714c.123.005.228.037.287.096.117.117-.091.2-.463.185-.411-.017-.495-.1-.214-.213a.97.97 0 01.39-.068zm2.34 4.712c.247 0 .511.148.511.38 0 .086-.247.156-.55.156-.302 0-.45-.161-.328-.358.076-.123.218-.177.367-.178zm2.492 2.908c-.316-.01-.734.043-1.35.14-2.51.397-3.1 1.486-1.6 2.952.843.824 1.984.841 3.88.057 1.153-.478 1.239-1.326.249-2.465-.41-.471-.653-.667-1.18-.685zM44 64.927c-.255-.011-.483.043-.622.182-.174.173-.21.733-.083 1.243.191.76.375.885 1.015.692 1.088-.329 1.37-.654 1.122-1.298-.174-.455-.87-.795-1.432-.82zm-1.949.01c-.327-.036-1.016.878-1.016 1.398 0 .11.318.2.706.2.738 0 1.014-1.18.37-1.577a.142.142 0 00-.06-.02zM41.19 67.4c-.019-.001-.013.021.022.07.249.343-.533 1.182-1.1 1.182-.268 0-.487-.238-.487-.53 0-.718-.588-.668-1.034.089-.318.538-.41.55-.718.088-.53-.793-.436.134.123 1.212.459.884 3.367 3.022 4.11 3.022.188 0 .341.26.341.578 0 .747 1.017 1.513 2.029 1.527.436.006.793.137.793.29 0 .154.556.532 1.235.84.68.307 1.235.448 1.235.312 0-.329 4.442.217 5.195.639 1.224.685 6.165-.043 6.498-.957.069-.19.67-.428 1.337-.531 1.562-.242 3.38-1.203 4.656-2.461 1.025-1.01 1.323-1.53.634-1.104-.208.128-.803-.236-1.323-.81-.959-1.055-2.886-1.826-2.886-1.153 0 .198-.173.36-.384.36-.212 0-.678.357-1.036.794-.56.684-.75.733-1.374.353-.87-.53-1.792-.576-1.792-.089 0 .194.16.353.353.353.194 0 .353.148.353.33 0 .369-1.39.296-2.044-.108-.234-.145-.594-.159-.8-.031-.207.127-.673-.038-1.036-.366-.363-.329-1.305-.623-2.093-.652-.88-.034-1.433-.224-1.434-.495 0-.243-.32-.442-.707-.442s-.705.168-.705.374c0 .205-.146.284-.324.174-.178-.11-.733-.044-1.234.147-.79.3-.912.253-.912-.35 0-.834-.137-.855-1.167-.18-.436.285-1.14.425-1.575.311-.863-.226-1.035-.686-.345-.918.62-.209-.323-1.321-1.119-1.321-.325 0-.781-.16-1.012-.356-.145-.122-.243-.19-.273-.191zm27.365 1.61c-.013-.03-.158.079-.443.303-.34.266-.618.65-.618.852 0 .202.045.302.1.222.055-.081.333-.465.617-.853.24-.326.358-.494.344-.524zm5.842 3.875c-1.645 0-2.158.485-.928.875.376.12.891.686 1.145 1.259.253.573.666 1.041.916 1.041.341 0 .364-.171.09-.682-.2-.375-.359-.812-.35-.97.007-.158.25.149.54.682.29.534.76.97 1.044.97.285 0 .52.278.523.618.004.493.068.518.317.125.174-.275.62-.41 1.011-.308.619.161.579.003-.342-1.362-1.278-1.893-1.903-2.248-3.966-2.248zm-3.433.022a.212.212 0 00-.135.054c-.384.383.198 2.303 1.1 3.632 1.187 1.75 1.078 2.644-.546 4.489-2.496 2.836-8.415 5.373-16.412 7.036-3.234.672-4.987.807-10.525.813l-6.645.006-.72-.882c-.67-.82-.7-1.144-.434-4.587.364-4.702.392-6.936.09-7.238-.51-.51-4.698 2.199-7.19 4.65-2.503 2.463-3.07 3.294-2.248 3.294.206 0 .265.176.133.39-.17.274-.312.278-.474.015-.137-.221-.631.124-1.206.844l-.973 1.22.808.006c.63.004.695.077.297.33-.282.178-.62.256-.754.174-.286-.177-1.044.674-1.178 1.325a6.438 6.438 0 01-.319.988c-1.131 2.676-1.32 3.934-1.293 8.638.016 2.719-.122 5.817-.306 6.886-.184 1.068-.252 2.378-.15 2.91l.185.968h58.205l-.248-1.322c-.137-.727-.37-1.402-.52-1.5-.354-.23-1.057-5.488-.932-6.968.053-.63.003-1.146-.111-1.146s-.21-.913-.213-2.029c-.006-3.018-.514-6.548-1.795-12.471-.478-2.211-.872-4.32-.876-4.685-.011-1.063-1.99-4.692-2.686-4.924a5.474 5.474 0 01-1.236-.65c-.247-.182-.519-.28-.692-.266zm-34.514.271l-1.852 1.334c-4.592 3.307-6.044 4.682-15.964 15.117-2.716 2.858-5.208 5.619-5.537 6.136l-.598.94 4.676-.074.48-1.378c.263-.758.386-1.752.272-2.21-.25-1.004.46-1.635 2.471-2.195 1.71-.476 2.293-.917 2.293-1.733 0-1.064 3.52-6.067 5.957-8.465 1.283-1.263 3.564-3.01 5.067-3.882 2.397-1.39 2.735-1.71 2.735-2.588zm42.526 1.146c-.194-.003-.133.15.124.46.222.267.905.586 1.519.709 1.25.25 2.397 1.138 2.397 1.856 0 .261.145.475.323.475.178 0 .601.107.94.237.398.152.532.1.38-.147-.13-.21-.038-.463.206-.56.244-.1-.033-.198-.615-.22l-1.058-.04.882-.49c.765-.424.963-.417 1.49.06.336.302.536.669.446.815-.23.37.654 1.043 1.834 1.397 1.514.455 2.19.405 1.376-.102a9.564 9.564 0 01-1.257-.972c-.32-.303-.787-.483-1.038-.4-.315.106-.387-.065-.232-.553.265-.835-.104-1.02-2.703-1.357-1.021-.133-1.973-.416-2.116-.63-.183-.274-.26-.264-.265.034-.004.312-.325.289-1.228-.089-.763-.318-1.212-.479-1.405-.483zm2.048 2.18c-.046.02-.012.146.08.388.123.319.365.58.538.58.454 0 .39-.205-.222-.713-.225-.186-.35-.274-.396-.254zm8.074.411c-.285-.004-.31.065-.085.208.29.186.992.34 1.558.343 1.364.007 1.068-.196-.676-.464a6.52 6.52 0 00-.797-.087zm-10.602.195c-.106.009-.203.072-.306.183-.32.345-.28.636.177 1.278.326.456.924 1.702 1.33 2.767.458 1.206.991 2.007 1.41 2.122.473.13.703.554.77 1.42.162 2.08 1.2 4.205 2.017 4.125.41-.04.73.155.757.46.026.292.065.71.088.93.063.626 2.892 3.23 4.011 3.694.996.413 2.732 3.184 2.732 4.36 0 .298.2.542.444.542.564 0 1.412 1.329 1.134 1.778-.115.186-.05.338.145.338s.635.476.979 1.058c.344.582.864 1.058 1.156 1.058.84 0 4.256-.845 4.256-1.053 0-.104-.38-.597-.843-1.098a11.05 11.05 0 01-1.42-2.024c-.318-.614-.732-1.116-.921-1.116s-.344-.17-.344-.378-.198-.583-.44-.833c-.243-.25-.918-1.045-1.5-1.766-1.35-1.674-2.605-3.142-4.385-5.137-.78-.873-1.421-1.715-1.426-1.872-.006-.157-.169-.188-.363-.068-.194.12-.353.05-.353-.156 0-.205-.836-1.207-1.86-2.225-1.022-1.019-2.277-2.566-2.788-3.44s-1.3-1.915-1.756-2.316c-.455-.401-1.224-1.216-1.71-1.812-.48-.591-.758-.838-.99-.819zm14.045.407c-.16 0-.32.025-.442.074-.242.098-.043.178.442.178s.683-.08.44-.178a1.226 1.226 0 00-.44-.074zm4.916.3c-.189.009-.33.12-.33.36 0 .194-.318.353-.706.353-.388 0-.705.134-.705.298 0 .472 1.266 1.493 1.527 1.231.13-.13.236-.067.236.138 0 .566-.805.762-2.514.61-.848-.075-1.232-.045-.852.068.38.112 1.039.432 1.464.71.624.41.814.419.985.049.167-.361.255-.365.418-.018.285.612.852.554.852-.087 0-.902.526-.582.58.352.034.591-.14.894-.53.92-.318.02.056.245.832.501 1.657.546 3.479.659 3.193.197-.11-.178-.023-.382.192-.453.215-.072-.1-.657-.702-1.301-.601-.644-1.026-1.28-.943-1.412.082-.133-.308-.445-.867-.692-.559-.248-1.114-.758-1.233-1.133-.138-.437-.583-.706-.898-.691zm8.456 2.236c-.271-.02-.51.195-.599.65-.056.291.213.675.6.853.87.403 5.323 4.688 5.323 5.123 0 .838-1.087.083-3.44-2.387-3-3.15-4.35-3.668-4.966-1.904-.417 1.198.144 1.883 1.88 2.295.582.138 1.535.611 2.117 1.05.582.44 1.462.898 1.955 1.02.494.12 1.605.858 2.47 1.638 1.647 1.486 2.265 1.72 2.59.986.108-.242.161-.14.118.228-.082.703.162.815 3.45 1.588.97.228 2.438.686 3.262 1.019 1.251.505 1.498.764 1.499 1.575 0 .622-.186.97-.521.97-.287 0-.623.401-.746.891s-.52 1.05-.88 1.243c-.54.288-.618.247-.434-.23.145-.379-.074-.811-.626-1.235-1.162-.894-2.186-.878-1.113.017.436.364.791.875.788 1.134-.004.358-.089.344-.347-.056-.189-.29-.345-.385-.348-.21-.015.88-1.456-1.15-1.642-2.312-.118-.74-.408-1.506-.644-1.702-.268-.222-.097.96.45 3.125l.88 3.482 1.155-.682c.635-.375 1.842-.746 2.68-.825.84-.079 1.969-.271 2.51-.427.968-.28.974-.297.328-.99-.917-.985-1.273-2.41-.531-2.124.46.176.478.121.107-.325-.375-.453-.326-.538.317-.538h.764l-.809-.85c-.444-.468-1.574-1.43-2.512-2.136-1.375-1.038-1.802-1.204-2.213-.863-.28.232-.55.36-.6.284-.05-.077-.325-.61-.61-1.186-.599-1.213-1.595-2.304-2.104-2.304-.194 0-.353-.238-.353-.53 0-.29-.191-.489-.425-.44-.234.048-.432-.097-.44-.324-.03-.75-.546-.953-.546-.214 0 .4.238.818.53.93.64.246.698 1.156.087 1.404-.332.134-.31.27.088.553.458.324.448.375-.077.38-.393.003-.534.19-.403.534.112.29.053.529-.131.529-.376 0-1.152-1.54-1.152-2.286 0-.734-3.63-4.277-4.642-4.531-.485-.122-1.07-.635-1.3-1.14-.218-.478-.522-.731-.794-.75zm-2.193 2.01a.82.82 0 01.638.347c.271.438.149.438-.529 0-.318-.205-.361-.344-.109-.347zm-.44.819a.324.324 0 01.196.057c.194.12.353.288.353.374 0 .085-.159.155-.353.155-.194 0-.352-.168-.352-.373 0-.129.062-.204.155-.213zm.194 1.964c-.058.005-.122.04-.191.11-.106.106-.069.648.084 1.205l.277 1.012.12-1.002c.095-.812-.039-1.35-.29-1.325zm1.884 1.445c-.778 0-1 .153-.894.617.056.242-.074.441-.289.441-.498 0-.157 3.423.52 5.232.267.712.497 1.532.512 1.823.069 1.363.305 2.036 1.083 3.089.463.625.892 1.084.955 1.021.157-.157.513-3.05.492-4.004-.009-.427.14-.873.332-.991.45-.279-.162-1.443-1.28-2.43-.462-.408-.885-1.059-.94-1.447-.055-.388-.234-.922-.4-1.186-.172-.277-.153-.576.046-.705.512-.335.406-1.46-.137-1.46zm-12.376.358c-.437-.003-.794.153-.794.347 0 .442.374.442 1.058 0 .428-.276.377-.343-.264-.347zm.847.833c-.678-.003-1.288.219-1.288.539 0 .389 2.97 3.387 3.263 3.293.145-.046.264.208.264.566s.334.953.742 1.322c.408.37.948 1.069 1.201 1.554.253.486 1.09 1.356 1.862 1.934.873.654 1.33 1.241 1.209 1.557-.133.346-.051.417.26.225.298-.184.845.144 1.583.95.62.677 1.355 1.32 1.633 1.43.832.328.941.284.89-.362-.066-.828-1.282-4.4-1.662-4.884-.167-.211-.2-.489-.071-.617.127-.127.037-.232-.2-.232-.238 0-.333-.163-.21-.361.123-.2.11-.874-.029-1.5-.207-.932-.295-1.017-.49-.469-.19.536-.39.311-1.008-1.124-.424-.985-.77-1.941-.77-2.124 0-.183-.265-.55-.587-.816-.458-.378-.62-.388-.736-.044-.081.243-.462.44-.845.44-.383 0-.608.145-.5.32.11.177.54.231.959.122.507-.133.679-.068.517.195-.134.216-.046.71.195 1.098.242.387.353.79.246.897-.352.352-2.384-.887-2.607-1.59-.12-.378-.366-.708-.547-.732a7.543 7.543 0 01-.682-.132 7.213 7.213 0 00-.705-.133c-.194-.024-.353-.265-.353-.535s-.384-.587-.854-.705a2.87 2.87 0 00-.68-.082zm-9.776 1.631c-.205 0-.275.159-.155.353.12.194.288.352.373.352s.156-.158.156-.352c0-.194-.168-.353-.374-.353zm27.112 2.47c-.154 0-.284.357-.29.793-.005.437-.48 1.417-1.058 2.18-.576.762-1.048 1.665-1.048 2.007 0 .342-.159.72-.353.84-.194.12-.352.685-.352 1.256 0 .57-.138 1.037-.306 1.037-.168 0-.19.635-.047 1.41.244 1.338.18 1.552-.441 1.454-.375-.06-.328 1.477.124 4.075l.389 2.233h1.737c1.551 0 1.774-.1 2.09-.93.194-.512.396-1.186.45-1.5.052-.312.285-.915.518-1.34.48-.87.554-1.98.16-2.375-.146-.146-.265-.753-.265-1.349s-.203-1.152-.452-1.237c-.248-.085-.424-.02-.39.143.034.164-.154.854-.416 1.533l-.478 1.234-.248-1.411c-.137-.776-.12-2.007.037-2.736.161-.748.148-1.41-.03-1.52a.746.746 0 01-.316-.57c0-.232.208-.203.544.076.373.31.658.338.907.089.249-.249.074-.59-.555-1.086-.74-.581-.806-.746-.342-.84.426-.085.595-.556.643-1.791.037-.922-.06-1.676-.212-1.676zm7.376.42a.187.187 0 00-.13.05c-.12.12-.017.46.229.755.49.591 1.065.715 1.065.229 0-.395-.794-1.048-1.164-1.034zm-4.365 1.407a.102.102 0 00-.042.002c-.078.023-.057.173.055.466.149.386.066.765-.204.94-.317.204-.338.372-.07.557.55.379.818 1.69.46 2.254-.222.352-.305.362-.309.039-.003-.243-.244-.441-.535-.441-.29 0-.529.142-.529.315 0 .173.238.406.53.518.362.139.529.706.529 1.802 0 1.818.344 1.992 1.367.691.57-.723.644-1.09.369-1.812-.19-.498-.434-1.479-.544-2.18-.11-.701-.326-1.322-.482-1.38-.156-.058-.206-.397-.113-.754.093-.357-.03-.772-.273-.923a.615.615 0 00-.209-.094zm6.542 6.681a4.009 4.009 0 00-.744.06c-.439.085-.163.158.613.162.776.004 1.135-.066.798-.154a2.903 2.903 0 00-.667-.068zm-13.974.718c-.057-.013-.076.098-.08.327-.007.308.094.665.224.794.43.43.54-.055.16-.708-.153-.265-.247-.4-.304-.413zm-18.818.342a.97.97 0 00-.39.068c-.28.113-.197.196.214.213.372.015.58-.068.463-.185-.059-.059-.164-.091-.287-.096zm-78.765.864c-.428-.035-1.84 1.957-2.42 3.585-.33.93-.93 2.047-1.334 2.48l-.734.788.807-.011c1.132-.016 1.956-.737 2.23-1.951.127-.57.535-1.71.905-2.532.37-.822.671-1.775.67-2.116 0-.16-.045-.237-.124-.243zm-3.781.68c-.16-.022-.342.195-.43.533-.12.454-.01.701.312.701.545 0 .683-.901.184-1.21a.171.171 0 00-.066-.024zm84.594.219c-.188 0-.256.103-.256.31 0 .194.436.341.97.328.86-.022.89-.06.265-.328-.482-.207-.79-.31-.98-.31zm9.974.02c-.761-.028-1.919.182-3.88.615-1.65.364-3.125.585-3.279.49-.154-.093-.472-.021-.706.162-.65.507-1.966.752-2.087.388-.127-.382-5.57.355-6.1.826-.208.185.247.219 1.111.08 1.286-.205 1.491-.143 1.7.512.13.41.384.744.565.744.181 0 .329.294.329.652 0 .358.357.824.793 1.035.479.23 3.427.392 7.41.406 5.654.02 6.614-.053 6.614-.505a.53.53 0 00-.53-.53c-.29 0-.529-.167-.529-.373 0-.205.16-.275.353-.155.589.363.394-.79-.24-1.425-.556-.555-.555-.614.002-.926.556-.31.554-.388-.025-1.185-.376-.517-.74-.783-1.501-.81zm4.196.29c-.174 0-.316.317-.316.705 0 .688.375.92.8.495.282-.283-.088-1.2-.484-1.2zM.878 103.24c-.192.013-.456.272-.612.765-.18.568-.069.88.41 1.146.361.201 1.057.796 1.546 1.322 1.174 1.263 1.356 1.224 1.313-.28-.032-1.128-.085-1.198-.494-.639-.252.345-.458.463-.458.263s-.385-.538-.854-.752c-.624-.284-.803-.586-.665-1.115.128-.491.007-.724-.186-.71zm2.608.336c-.086 0-.254.16-.374.353-.12.194-.05.353.156.353.205 0 .373-.159.373-.353 0-.194-.07-.353-.155-.353zm102.262.846a.433.433 0 00-.328.207c-.122.197.025.359.328.359.62 0 .711-.212.222-.514a.36.36 0 00-.222-.052zm-14.62.964c.16 0 .32.025.441.074.243.097.044.177-.44.177-.486 0-.684-.08-.441-.177.12-.05.28-.074.44-.074zm14.817.307c-.411 0-.65.159-.53.353.12.194.359.353.53.353s.41-.159.529-.353c.12-.194-.118-.353-.53-.353zm-23.345.084c-.32.004-.676.184-.926.56-.28.422-.713.767-.962.767-.353 0-.366.186-.058.838.352.746.632.838 2.578.848 2.029.01 2.194-.048 2.345-.837.18-.947-.677-1.223-1.02-.329-.171.447-.27.45-.695.026-.272-.273-.495-.75-.495-1.06 0-.532-.355-.818-.767-.813zm9.13.4c.101.01.195.083.28.221a.656.656 0 01-.097.768c-.235.235-.438.215-.608-.062a.656.656 0 01.096-.767c.118-.118.228-.171.329-.16zm-8.94.58c.149.005.236.136.144.414a.998.998 0 01-.559.558c-.258.086-.337-.075-.205-.419.138-.36.43-.56.62-.553zm22.303.44c-.305.007-.468.122-.37.282.248.4 1.222.443 1.222.053 0-.152-.32-.302-.713-.331a1.436 1.436 0 00-.14-.004zm1.709.188c-.046.025-.079.237-.083.601-.007.582.066.863.163.624s.102-.715.013-1.058c-.034-.129-.066-.182-.093-.167z"/></svg>