<svg version="1.1" viewBox="0.0 0.0 500.0 500.0" fill="none" stroke="none" stroke-linecap="square" stroke-miterlimit="10" xmlns:xlink="http://www.w3.org/1999/xlink" xmlns="http://www.w3.org/2000/svg">

<clipPath id="p.0"><path d="m0 0l500.0 0l0 500.0l-500.0 0l0 -500.0z" clip-rule="nonzero"/></clipPath>

<!-- <g clip-path="url(#p.0)"> -->

<path fill="#000000" fill-opacity="0.0" d="m0 0l500.0 0l0 500.0l-500.0 0z" fill-rule="evenodd"/><path fill="#000000" fill-opacity="0.0" d="m79.467354 27.985443l0 0c0 -11.064495 8.969543 -20.034039 20.034042 -20.034039l300.9949 0c5.3133545 0 10.409088 2.1107235 14.166199 5.867834c3.7571106 3.7571115 5.8678284 8.852847 5.8678284 14.166205l0 444.03027c0 11.064484 -8.969543 20.034027 -20.034027 20.034027l-300.9949 0c-11.064499 0 -20.034042 -8.969543 -20.034042 -20.034027z" fill-rule="evenodd"/><path stroke="#000000" stroke-width="4.0" stroke-linejoin="round" stroke-linecap="butt" d="m79.467354 27.985443l0 0c0 -11.064495 8.969543 -20.034039 20.034042 -20.034039l300.9949 0c5.3133545 0 10.409088 2.1107235 14.166199 5.867834c3.7571106 3.7571115 5.8678284 8.852847 5.8678284 14.166205l0 444.03027c0 11.064484 -8.969543 20.034027 -20.034027 20.034027l-300.9949 0c-11.064499 0 -20.034042 -8.969543 -20.034042 -20.034027z" fill-rule="evenodd"/><path fill="#000000" fill-opacity="0.0" d="m92.02476 40.719414l316.0048 0l0 418.79892l-316.0048 0z" fill-rule="evenodd"/><path stroke="#000000" stroke-width="3.0" stroke-linejoin="round" stroke-linecap="butt" d="m92.02476 40.719414l316.0048 0l0 418.79892l-316.0048 0z" fill-rule="evenodd"/><path fill="#000000" fill-opacity="0.0" d="m240.47638 474.05487l0 0c0 -5.2919617 4.276184 -9.58197 9.551117 -9.58197l0 0c2.5331116 0 4.9624786 1.0095215 6.753662 2.806488c1.7911682 1.7969666 2.7974548 4.234192 2.7974548 6.775482l0 0c0 5.291992 -4.276184 9.582001 -9.551117 9.582001l0 0c-5.274933 0 -9.551117 -4.2900085 -9.551117 -9.582001z" fill-rule="evenodd"/><path stroke="#000000" stroke-width="2.0" stroke-linejoin="round" stroke-linecap="butt" d="m240.47638 474.05487l0 0c0 -5.2919617 4.276184 -9.58197 9.551117 -9.58197l0 0c2.5331116 0 4.9624786 1.0095215 6.753662 2.806488c1.7911682 1.7969666 2.7974548 4.234192 2.7974548 6.775482l0 0c0 5.291992 -4.276184 9.582001 -9.551117 9.582001l0 0c-5.274933 0 -9.551117 -4.2900085 -9.551117 -9.582001z" fill-rule="evenodd"/><path fill="#000000" d="m246.67372 23.890512l0 0c0 -1.8321686 1.48526 -3.3174324 3.3174286 -3.3174324l0 0c0.87983704 0 1.7236481 0.349514 2.3457794 0.971653c0.6221466 0.622139 0.97164917 1.4659405 0.97164917 2.3457794l0 0c0 1.8321667 -1.48526 3.3174324 -3.3174286 3.3174324l0 0c-1.8321686 0 -3.3174286 -1.4852657 -3.3174286 -3.3174324z" fill-rule="evenodd"/><path stroke="#000000" stroke-width="1.0" stroke-linejoin="round" stroke-linecap="butt" d="m246.67372 23.890512l0 0c0 -1.8321686 1.48526 -3.3174324 3.3174286 -3.3174324l0 0c0.87983704 0 1.7236481 0.349514 2.3457794 0.971653c0.6221466 0.622139 0.97164917 1.4659405 0.97164917 2.3457794l0 0c0 1.8321667 -1.48526 3.3174324 -3.3174286 3.3174324l0 0c-1.8321686 0 -3.3174286 -1.4852657 -3.3174286 -3.3174324z" fill-rule="evenodd"/><path fill="#000000" fill-opacity="0.0" d="m354.04724 3.8174613l34.362213 0l0 5.1023626l-34.362213 0z" fill-rule="evenodd"/><path stroke="#000000" stroke-width="2.0" stroke-linejoin="round" stroke-linecap="butt" d="m354.04724 3.8174613l34.362213 0l0 5.1023626l-34.362213 0z" fill-rule="evenodd"/>

<!-- </g> -->

</svg>