<svg version="1.1" viewBox="0.0 0.0 500.0 500.0" fill="none" stroke="none" stroke-linecap="square" stroke-miterlimit="10" xmlns:xlink="http://www.w3.org/1999/xlink" xmlns="http://www.w3.org/2000/svg">
<clipPath id="p.0">

<path d="m0 0l500.0 0l0 500.0l-500.0 0l0 -500.0z" clip-rule="nonzero"/></clipPath>

<!-- <g clip-path="url(#p.0)"> -->

<path fill="#000000" fill-opacity="0.0" d="m0 0l500.0 0l0 500.0l-500.0 0z" fill-rule="evenodd"/><path fill="#000000" fill-opacity="0.0" d="m13.385827 21.22393l473.22833 0l0 344.28345l-473.22833 0z" fill-rule="evenodd"/><path stroke="#000000" stroke-width="4.0" stroke-linejoin="round" stroke-linecap="butt" d="m13.385827 21.22393l473.22833 0l0 344.28345l-473.22833 0z" fill-rule="evenodd"/><path fill="#000000" fill-opacity="0.0" d="m21.385826 28.9904l457.22833 0l0 283.9685l-457.22833 0z" fill-rule="evenodd"/><path stroke="#000000" stroke-width="3.0" stroke-linejoin="round" stroke-linecap="butt" d="m21.385826 28.9904l457.22833 0l0 283.9685l-457.22833 0z" fill-rule="evenodd"/><path fill="#000000" fill-opacity="0.0" d="m467.4252 365.13733l0 0c0 2.1583252 -1.3469543 4.151245 -3.5296936 5.222473c-2.1827393 1.071228 -4.8667297 1.0566101 -7.0334167 -0.038360596c-2.1667175 -1.0949707 -3.4840393 -3.102417 -3.4520874 -5.2605896l7.007324 0.07647705z" fill-rule="evenodd"/><path stroke="#000000" stroke-width="2.0" stroke-linejoin="round" stroke-linecap="butt" d="m467.4252 365.13733l0 0c0 2.1583252 -1.3469543 4.151245 -3.5296936 5.222473c-2.1827393 1.071228 -4.8667297 1.0566101 -7.0334167 -0.038360596c-2.1667175 -1.0949707 -3.4840393 -3.102417 -3.4520874 -5.2605896l7.007324 0.07647705z" fill-rule="evenodd"/><path fill="#000000" fill-opacity="0.0" d="m213.50656 464.72394l7.9582825 -99.433075l64.681854 0l7.9582825 99.433075z" fill-rule="evenodd"/><path stroke="#000000" stroke-width="3.0" stroke-linejoin="round" stroke-linecap="butt" d="m213.50656 464.72394l7.9582825 -99.433075l64.681854 0l7.9582825 99.433075z" fill-rule="evenodd"/><path fill="#000000" fill-opacity="0.0" d="m127.6168 478.77606l3.5039291 -14.015747l245.37009 0l3.5039368 14.015747z" fill-rule="evenodd"/>

<path stroke="#000000" stroke-width="3.0" stroke-linejoin="round" stroke-linecap="butt" d="m127.6168 478.77606l3.5039291 -14.015747l245.37009 0l3.5039368 14.015747z" fill-rule="evenodd"/>

<!-- </g> -->
</svg>