<svg version="1.1" viewBox="0.0 0.0 500.0 500.0" fill="none" stroke="none" stroke-linecap="square" stroke-miterlimit="10" xmlns:xlink="http://www.w3.org/1999/xlink" xmlns="http://www.w3.org/2000/svg">
    <clipPath id="p.0"><path d="m0 0l500.0 0l0 500.0l-500.0 0l0 -500.0z" clip-rule="nonzero"/></clipPath>
<!-- <g clip-path="url(#p.0)"> -->
    <path fill="#000000" fill-opacity="0.0" d="m0 0l500.0 0l0 500.0l-500.0 0z" fill-rule="evenodd"/>
    <path fill="#000000" fill-opacity="0.0" d="m103.291336 8.26378l0 0c0 -0.0013504028 0.0010986328 -0.002445221 0.0024490356 -0.002445221l293.41486 0.002445221c6.713867E-4 0 0.0012817383 2.5749207E-4 0.001739502 7.162094E-4c4.5776367E-4 4.5871735E-4 7.324219E-4 0.001080513 7.324219E-4 0.0017290115l-0.0024719238 414.8007c0 0.0013427734 -0.0010681152 0.0024414062 -0.0024414062 0.0024414062l-293.41486 -0.0024414062l0 0c-0.0013504028 0 -0.0024414062 -0.0010986328 -0.0024414062 -0.0024414062z" fill-rule="evenodd"/>
    <path stroke="#000000" stroke-width="4.0" stroke-linejoin="round" stroke-linecap="butt" d="m103.291336 8.26378l0 0c0 -0.0013504028 0.0010986328 -0.002445221 0.0024490356 -0.002445221l293.41486 0.002445221c6.713867E-4 0 0.0012817383 2.5749207E-4 0.001739502 7.162094E-4c4.5776367E-4 4.5871735E-4 7.324219E-4 0.001080513 7.324219E-4 0.0017290115l-0.0024719238 414.8007c0 0.0013427734 -0.0010681152 0.0024414062 -0.0024414062 0.0024414062l-293.41486 -0.0024414062l0 0c-0.0013504028 0 -0.0024414062 -0.0010986328 -0.0024414062 -0.0024414062z" fill-rule="evenodd"/>
    <path fill="#000000" fill-opacity="0.0" d="m138.31496 35.20866l223.37007 0l0 353.44882l-223.37007 0z" fill-rule="evenodd"/>
    <path stroke="#000000" stroke-width="3.0" stroke-linejoin="round" stroke-linecap="butt" d="m138.31496 35.20866l223.37007 0l0 353.44882l-223.37007 0z" fill-rule="evenodd"/>
    <path fill="#000000" fill-opacity="0.0" d="m371.43396 152.6459l0 0c0 -3.8123322 3.0904846 -6.902817 6.9028015 -6.902817l0 0l0 0c1.8307495 0 3.5865173 0.72724915 4.8810425 2.0217896c1.2945251 1.2945251 2.0217896 3.0502777 2.0217896 4.881027l0 41.308884c0 3.812317 -3.0904846 6.902817 -6.902832 6.902817l0 0l0 0c-3.812317 0 -6.9028015 -3.0904999 -6.9028015 -6.902817z" fill-rule="evenodd"/>
    <path stroke="#000000" stroke-width="2.0" stroke-linejoin="round" stroke-linecap="butt" d="m371.43396 152.6459l0 0c0 -3.8123322 3.0904846 -6.902817 6.9028015 -6.902817l0 0l0 0c1.8307495 0 3.5865173 0.72724915 4.8810425 2.0217896c1.2945251 1.2945251 2.0217896 3.0502777 2.0217896 4.881027l0 41.308884c0 3.812317 -3.0904846 6.902817 -6.902832 6.902817l0 0l0 0c-3.812317 0 -6.9028015 -3.0904999 -6.9028015 -6.902817z" fill-rule="evenodd"/>
    <path fill="#000000" fill-opacity="0.0" d="m374.5061 154.81085l0 0c0 -2.1153564 1.7150574 -3.8302002 3.830658 -3.8302002l0 0c1.0159607 0 1.9903259 0.40353394 2.7087097 1.1218414c0.7183838 0.7183075 1.1219788 1.6925354 1.1219788 2.7083588l0 0c0 2.1153717 -1.7150574 3.8302155 -3.8306885 3.8302155l0 0c-2.1156006 0 -3.830658 -1.7148438 -3.830658 -3.8302155z" fill-rule="evenodd"/>
    <path stroke="#000000" stroke-width="1.0" stroke-linejoin="round" stroke-linecap="butt" d="m374.5061 154.81085l0 0c0 -2.1153564 1.7150574 -3.8302002 3.830658 -3.8302002l0 0c1.0159607 0 1.9903259 0.40353394 2.7087097 1.1218414c0.7183838 0.7183075 1.1219788 1.6925354 1.1219788 2.7083588l0 0c0 2.1153717 -1.7150574 3.8302155 -3.8306885 3.8302155l0 0c-2.1156006 0 -3.830658 -1.7148438 -3.830658 -3.8302155z" fill-rule="evenodd"/>
    <path fill="#000000" d="m374.5061 191.6255l0 0c0 -2.1153717 1.7150574 -3.8302155 3.830658 -3.8302155l0 0c1.0159607 0 1.9903259 0.4035492 2.7087097 1.1218414c0.7183838 0.7183075 1.1219788 1.6925354 1.1219788 2.708374l0 0c0 2.1153564 -1.7150574 3.8302002 -3.8306885 3.8302002l0 0c-2.1156006 0 -3.830658 -1.7148438 -3.830658 -3.8302002z" fill-rule="evenodd"/>
    <path stroke="#000000" stroke-width="1.0" stroke-linejoin="round" stroke-linecap="butt" d="m374.5061 191.6255l0 0c0 -2.1153717 1.7150574 -3.8302155 3.830658 -3.8302155l0 0c1.0159607 0 1.9903259 0.4035492 2.7087097 1.1218414c0.7183838 0.7183075 1.1219788 1.6925354 1.1219788 2.708374l0 0c0 2.1153564 -1.7150574 3.8302002 -3.8306885 3.8302002l0 0c-2.1156006 0 -3.830658 -1.7148438 -3.830658 -3.8302002z" fill-rule="evenodd"/>
    <path fill="#000000" fill-opacity="0.0" d="m374.5061 173.21819l0 0c0 -2.1153717 1.7150574 -3.8302155 3.830658 -3.8302155l0 0c1.0159607 0 1.9903259 0.40353394 2.7087097 1.1218414c0.7183838 0.7183075 1.1219788 1.6925354 1.1219788 2.708374l0 0c0 2.1153564 -1.7150574 3.8302002 -3.8306885 3.8302002l0 0c-2.1156006 0 -3.830658 -1.7148438 -3.830658 -3.8302002z" fill-rule="evenodd"/><path stroke="#000000" stroke-width="2.0" stroke-linejoin="round" stroke-linecap="butt" d="m374.5061 173.21819l0 0c0 -2.1153717 1.7150574 -3.8302155 3.830658 -3.8302155l0 0c1.0159607 0 1.9903259 0.40353394 2.7087097 1.1218414c0.7183838 0.7183075 1.1219788 1.6925354 1.1219788 2.708374l0 0c0 2.1153564 -1.7150574 3.8302002 -3.8306885 3.8302002l0 0c-2.1156006 0 -3.830658 -1.7148438 -3.830658 -3.8302002z" fill-rule="evenodd"/>
    <path fill="#000000" fill-opacity="0.0" d="m376.80704 173.21819l0 0c0 -0.8447571 0.6848755 -1.5295563 1.5297241 -1.5295563l0 0c0.4057312 0 0.7948303 0.16114807 1.0816956 0.44799805c0.28689575 0.28683472 0.44805908 0.67588806 0.44805908 1.0815582l0 0c0 0.8447418 -0.6848755 1.529541 -1.5297546 1.529541l0 0c-0.84484863 0 -1.5297241 -0.6847992 -1.5297241 -1.529541z" fill-rule="evenodd"/>
    <path stroke="#000000" stroke-width="1.0" stroke-linejoin="round" stroke-linecap="butt" d="m376.80704 173.21819l0 0c0 -0.8447571 0.6848755 -1.5295563 1.5297241 -1.5295563l0 0c0.4057312 0 0.7948303 0.16114807 1.0816956 0.44799805c0.28689575 0.28683472 0.44805908 0.67588806 0.44805908 1.0815582l0 0c0 0.8447418 -0.6848755 1.529541 -1.5297546 1.529541l0 0c-0.84484863 0 -1.5297241 -0.6847992 -1.5297241 -1.529541z" fill-rule="evenodd"/>
    <path fill="#000000" fill-opacity="0.0" d="m105.637794 423.0748l288.72443 0l0 68.66141l-288.72443 0z" fill-rule="evenodd"/>
    <path stroke="#000000" stroke-width="4.0" stroke-linejoin="round" stroke-linecap="butt" d="m105.637794 423.0748l288.72443 0l0 68.66141l-288.72443 0z" fill-rule="evenodd"/>
    <!-- </g> -->
</svg>